<svg width="832" height="1024" viewBox="0 0 832 1024" fill="none" xmlns="http://www.w3.org/2000/svg">
<rect width="832" height="1024" fill="#FAFAFB"/>
<path d="M684.423 738.3C680.799 769.441 584.045 777.863 467.607 764.251C351.071 750.639 251.476 784.424 255.1 753.185C258.723 721.945 358.024 691.293 474.56 704.906C591.096 718.518 688.046 707.158 684.423 738.3Z" fill="#CCE9FF"/>
<path d="M257.254 381.738H288.102V504.738H257.254V381.738Z" fill="#E3E3E3"/>
<path d="M262.25 372.926H283.011V424.633H262.25V372.926Z" fill="#E3E3E3"/>
<path d="M266.852 367.344H278.407V396.037H266.852V367.344Z" fill="#E3E3E3"/>
<path d="M276.549 382.129H268.715V362.543H276.549V382.129Z" fill="#E3E3E3"/>
<path d="M272.14 373.609H271.258V354.023H272.14V373.609ZM274 366.852H273.217V347.266H274V366.852ZM256.373 381.443H288.886V382.716H256.373V381.443Z" fill="#E3E3E3"/>
<path d="M261.465 372.336H283.793V373.609H261.465V372.336ZM266.068 366.852H278.896V367.831H266.068V366.852Z" fill="#E3E3E3"/>
<path opacity="0.29" d="M264.207 375.078H265.186V380.464H264.207V375.078ZM266.851 375.078H267.83V380.464H266.851V375.078ZM269.495 375.078H270.475V380.464H269.495V375.078ZM272.237 375.078H273.217V380.464H272.237V375.078ZM274.881 375.078H275.861V380.464H274.881V375.078ZM277.525 375.078H278.505V380.464H277.525V375.078ZM280.267 375.078H281.247V380.464H280.267V375.078Z" fill="#E3E3E3"/>
<path d="M259.9 386.734H262.251V393.198H259.9V386.734Z" fill="#E3E3E3"/>
<path opacity="0.29" d="M264.502 386.734H266.852V393.198H264.502V386.734Z" fill="#E3E3E3"/>
<path d="M269.204 386.734H271.554V393.198H269.204V386.734ZM273.806 386.734H276.157V393.198H273.806V386.734ZM278.409 386.734H280.759V393.198H278.409V386.734ZM283.012 386.734H285.362V393.198H283.012V386.734ZM259.9 396.723H262.251V403.187H259.9V396.723ZM264.503 396.723H266.853V403.187H264.503V396.723ZM269.204 396.723H271.554V403.187H269.204V396.723Z" fill="#E3E3E3"/>
<path opacity="0.29" d="M273.805 396.723H276.155V403.186H273.805V396.723Z" fill="#E3E3E3"/>
<path d="M278.409 396.723H280.759V403.186H278.409V396.723ZM283.012 396.723H285.362V403.186H283.012V396.723ZM259.9 406.711H262.251V413.175H259.9V406.711ZM264.503 406.711H266.853V413.175H264.503V406.711ZM269.204 406.711H271.554V413.175H269.204V406.711ZM273.806 406.711H276.157V413.175H273.806V406.711Z" fill="#E3E3E3"/>
<path opacity="0.29" d="M278.409 406.711H280.759V413.174H278.409V406.711ZM283.012 406.711H285.362V413.174H283.012V406.711ZM259.9 416.7H262.251V423.163H259.9V416.7Z" fill="#E3E3E3"/>
<path d="M264.503 416.699H266.853V423.163H264.503V416.699ZM269.204 416.699H271.554V423.163H269.204V416.699ZM273.806 416.699H276.157V423.163H273.806V416.699ZM278.409 416.699H280.759V423.163H278.409V416.699ZM283.012 416.699H285.362V423.163H283.012V416.699ZM259.9 426.688H262.251V433.151H259.9V426.688Z" fill="#E3E3E3"/>
<path opacity="0.29" d="M264.502 426.688H266.852V433.151H264.502V426.688Z" fill="#E3E3E3"/>
<path d="M269.203 426.688H271.553V433.151H269.203V426.688Z" fill="#E3E3E3"/>
<path opacity="0.29" d="M273.805 426.688H276.155V433.151H273.805V426.688Z" fill="#E3E3E3"/>
<path d="M278.409 426.688H280.759V433.151H278.409V426.688ZM283.012 426.688H285.362V433.151H283.012V426.688ZM259.9 436.774H262.251V443.238H259.9V436.774ZM264.503 436.774H266.853V443.238H264.503V436.774ZM269.204 436.774H271.554V443.238H269.204V436.774ZM273.806 436.774H276.157V443.238H273.806V436.774ZM278.409 436.774H280.759V443.238H278.409V436.774Z" fill="#E3E3E3"/>
<path opacity="0.29" d="M283.01 436.773H285.36V443.237H283.01V436.773Z" fill="#E3E3E3"/>
<path d="M259.9 446.762H262.251V453.225H259.9V446.762Z" fill="#E3E3E3"/>
<path opacity="0.29" d="M264.502 446.762H266.852V453.225H264.502V446.762ZM269.203 446.762H271.553V453.225H269.203V446.762Z" fill="#E3E3E3"/>
<path d="M273.806 446.762H276.157V453.225H273.806V446.762ZM278.409 446.762H280.759V453.225H278.409V446.762ZM283.012 446.762H285.362V453.225H283.012V446.762ZM259.9 456.751H262.251V463.214H259.9V456.751ZM264.503 456.751H266.853V463.214H264.503V456.751ZM269.204 456.751H271.554V463.214H269.204V456.751ZM273.806 456.751H276.157V463.214H273.806V456.751Z" fill="#E3E3E3"/>
<path opacity="0.29" d="M278.408 456.754H280.759V463.217H278.408V456.754Z" fill="#E3E3E3"/>
<path d="M283.012 456.754H285.362V463.217H283.012V456.754ZM259.9 466.743H262.251V473.206H259.9V466.743Z" fill="#E3E3E3"/>
<path opacity="0.29" d="M264.502 466.742H266.852V473.206H264.502V466.742Z" fill="#E3E3E3"/>
<path d="M269.204 466.742H271.554V473.206H269.204V466.742ZM273.806 466.742H276.157V473.206H273.806V466.742ZM278.409 466.742H280.759V473.206H278.409V466.742ZM283.012 466.742H285.362V473.206H283.012V466.742ZM259.9 476.829H262.251V483.292H259.9V476.829ZM264.503 476.829H266.853V483.292H264.503V476.829ZM269.204 476.829H271.554V483.292H269.204V476.829Z" fill="#E3E3E3"/>
<path opacity="0.29" d="M273.805 476.828H276.155V483.291H273.805V476.828Z" fill="#E3E3E3"/>
<path d="M278.408 476.828H280.759V483.291H278.408V476.828Z" fill="#E3E3E3"/>
<path opacity="0.29" d="M283.012 476.828H285.362V483.291H283.012V476.828ZM259.9 486.817H262.251V493.28H259.9V486.817Z" fill="#E3E3E3"/>
<path d="M264.502 486.816H266.852V493.28H264.502V486.816Z" fill="#E3E3E3"/>
<path opacity="0.29" d="M269.203 486.816H271.553V493.28H269.203V486.816Z" fill="#E3E3E3"/>
<path d="M273.806 486.815H276.157V493.279H273.806V486.815ZM278.409 486.815H280.759V493.279H278.409V486.815ZM283.012 486.815H285.362V493.279H283.012V486.815ZM167.553 386.438H217.203V490.047H167.553V386.438Z" fill="#E3E3E3"/>
<path d="M166.084 384.676H218.574V387.614H166.084V384.676Z" fill="#E3E3E3"/>
<path d="M169.217 380.953H215.537V394.859H169.217V380.953Z" fill="#E3E3E3"/>
<path d="M172.742 375.273H191.055V390.453H172.742V375.273Z" fill="#E3E3E3"/>
<path d="M183.319 379.487H172.742V371.555H180.283L183.319 379.487Z" fill="#E3E3E3"/>
<path d="M176.951 364.895H178.028V382.718H176.951V364.895Z" fill="#E3E3E3"/>
<path d="M177.542 364.798C178.028 364.798 178.423 364.403 178.423 363.917C178.423 363.43 178.028 363.035 177.542 363.035C177.055 363.035 176.66 363.43 176.66 363.917C176.66 364.403 177.055 364.798 177.542 364.798Z" fill="#E3E3E3"/>
<path d="M628.31 497.881H573.959L567.202 345.601L628.31 358.332V497.881ZM391.223 410.92V359.997H382.703V346.384H379.667V326.407H362.823V311.717H361.355V326.407H358.123V307.996H356.556V326.407H345.98V359.997H340.496V410.92H335.795V503.659H394.553V410.92H391.223Z" fill="#E3E3E3"/>
<path d="M480.336 507.676H451.643L462.807 450.094H480.336V507.676Z" fill="#8CAAA7"/>
<path d="M74.8145 509.929H756.698V554.584H74.8145V509.929ZM456.837 401.129V375.569H447.534V365.874H442.638V357.746H440.875V343.742H440.483V357.746H438.72V365.874H433.824V375.569H424.619V401.129H422.758V447.45H408.46V500.234H458.6V401.129H456.837ZM509.915 430.41H465.161V431.291H467.218V506.795H507.859V431.291H509.915V430.41Z" fill="#CCE9FF"/>
<path d="M266.461 449.309H306.122V512.277H266.461V449.309ZM192.328 481.527H260.487V512.179H192.328V481.527Z" fill="#CCE9FF"/>
<path d="M228.854 412.977H243.837V488.382H228.854V412.977Z" fill="#CCE9FF"/>
<path d="M232.186 392.805H232.969V433.837H232.186V392.805ZM234.732 395.938H235.515V436.971H234.732V395.938Z" fill="#CCE9FF"/>
<path d="M230.031 408.276H239.139V418.363H230.031V408.276ZM257.843 460.571H283.892V512.277H257.843V460.571ZM312.488 405.828H361.355V512.18H312.488V405.828Z" fill="#CCE9FF"/>
<path d="M317.285 402.207H356.555V419.932H317.285V402.207Z" fill="#CCE9FF"/>
<path d="M308.668 408.082H365.075V409.355H308.668V408.082ZM303.673 458.516H326.687V512.279H303.673V458.516ZM138.662 456.459H165.103V512.181H138.662V456.459Z" fill="#CCE9FF"/>
<path d="M147.278 441.281H199.964V512.182H147.278V441.281ZM144.145 438.539H201.237V441.281H144.145V438.539Z" fill="#CCE9FF"/>
<path d="M149.629 431.191H172.74V445.587H149.629V431.191ZM180.281 431.191H184.198V439.907H180.281V431.191ZM188.017 431.191H192.326V439.907H188.017V431.191ZM124.363 490.635H151.979V512.179H124.363V490.635Z" fill="#CCE9FF"/>
<path d="M113.887 481.527H126.911V512.179H113.887V481.527Z" fill="#CCE9FF"/>
<path d="M98.1172 501.408H120.445V512.18H98.1172V501.408ZM356.553 488.285H631.735V512.18H356.553V488.285Z" fill="#CCE9FF"/>
<path d="M609.701 422.183C607.939 422.183 606.568 423.554 606.372 425.219L602.455 425.121V423.946C602.455 419.147 601.671 414.447 600.006 410.04L603.238 408.865C603.728 410.04 604.903 410.823 606.274 410.823C608.135 410.823 609.604 409.354 609.604 407.494C609.604 405.633 608.135 404.164 606.274 404.164C604.413 404.164 602.944 405.633 602.944 407.494C602.944 407.787 603.042 408.179 603.042 408.473L599.811 409.648C597.95 404.752 595.11 400.149 591.487 396.134L594.033 393.784C594.62 394.371 595.404 394.665 596.285 394.665C598.146 394.665 599.615 393.196 599.615 391.335C599.615 389.475 598.146 388.006 596.285 388.006C594.424 388.006 592.955 389.475 592.955 391.335C592.955 392.119 593.249 392.902 593.739 393.49L591.193 395.84C590.899 395.546 590.703 395.253 590.409 395.057C586.59 391.237 582.085 388.202 577.287 386.243L578.658 382.815C578.952 382.913 579.343 383.011 579.637 383.011C581.498 383.011 582.967 381.542 582.967 379.682C582.967 377.821 581.498 376.352 579.637 376.352C577.776 376.352 576.307 377.821 576.307 379.682C576.307 381.053 577.091 382.228 578.266 382.718L576.895 386.145C572.586 384.382 567.886 383.403 563.087 383.207L563.283 378.605H563.381C565.241 378.605 566.71 377.136 566.71 375.275C566.71 373.414 565.241 371.945 563.381 371.945C561.52 371.945 560.051 373.414 560.051 375.275C560.051 376.94 561.324 378.311 562.891 378.507L562.695 383.207H561.52C556.917 383.207 552.413 383.991 548.104 385.46L546.733 381.64C547.908 381.151 548.789 379.976 548.789 378.605C548.789 376.744 547.32 375.275 545.46 375.275C543.599 375.275 542.13 376.744 542.13 378.605C542.13 380.465 543.599 381.934 545.46 381.934C545.753 381.934 546.047 381.934 546.341 381.836L547.712 385.655C542.522 387.516 537.821 390.356 533.708 394.175L531.26 391.629C531.847 391.042 532.141 390.258 532.141 389.377C532.141 387.516 530.672 386.047 528.812 386.047C526.951 386.047 525.482 387.516 525.482 389.377C525.482 391.237 526.951 392.706 528.812 392.706C529.595 392.706 530.379 392.413 530.966 391.923L533.414 394.469C533.121 394.763 532.827 394.959 532.631 395.253C529.203 398.68 526.461 402.597 524.503 406.808L521.467 405.437C521.565 405.143 521.663 404.752 521.663 404.36C521.663 402.499 520.194 401.03 518.333 401.03C516.473 401.03 515.004 402.499 515.004 404.36C515.004 406.221 516.473 407.69 518.333 407.69C519.704 407.69 520.781 406.906 521.369 405.731L524.405 407.102C522.25 411.901 520.977 417.091 520.781 422.477L516.864 422.379C516.864 420.616 515.395 419.147 513.535 419.147C511.674 419.147 510.205 420.616 510.205 422.477C510.205 424.338 511.674 425.807 513.535 425.807C515.297 425.807 516.668 424.436 516.864 422.771L520.781 422.869V424.044C520.781 428.842 521.565 433.543 523.23 437.95L520.292 439.027C519.802 437.852 518.627 437.068 517.256 437.068C515.395 437.068 513.926 438.537 513.926 440.398C513.926 442.259 515.395 443.728 517.256 443.728C519.117 443.728 520.586 442.259 520.586 440.398C520.586 440.104 520.488 439.713 520.488 439.419L523.719 438.244C525.58 443.14 528.42 447.743 532.043 451.758L529.497 454.108C528.91 453.521 528.126 453.227 527.245 453.227C525.384 453.227 523.915 454.696 523.915 456.556C523.915 458.417 525.384 459.886 527.245 459.886C529.105 459.886 530.574 458.417 530.574 456.556C530.574 455.773 530.281 454.99 529.791 454.402L532.337 452.052C532.631 452.345 532.827 452.639 533.121 452.835C535.667 455.381 538.605 457.634 541.64 459.396L521.663 496.12H518.039V497.197H516.277V499.254H607.351V497.197H605.588V496.12H601.965L581.987 459.396C584.631 457.829 587.178 456.067 589.43 453.912L592.662 457.34C591.976 457.927 591.487 458.809 591.487 459.788C591.487 461.649 592.955 463.118 594.816 463.118C596.677 463.118 598.146 461.649 598.146 459.788C598.146 457.927 596.677 456.458 594.816 456.458C594.131 456.458 593.445 456.654 592.955 457.046L589.724 453.618C590.018 453.325 590.311 453.129 590.507 452.835C593.935 449.408 596.677 445.49 598.635 441.279L602.259 442.944C602.161 443.238 602.161 443.434 602.161 443.728C602.161 445.588 603.63 447.057 605.49 447.057C607.351 447.057 608.82 445.588 608.82 443.728C608.82 441.867 607.351 440.398 605.49 440.398C604.119 440.398 602.846 441.279 602.357 442.552L598.831 440.888C600.986 436.089 602.259 430.899 602.455 425.513L606.372 425.611C606.372 427.373 607.841 428.842 609.701 428.842C611.562 428.842 613.031 427.373 613.031 425.513C613.031 423.652 611.562 422.183 609.701 422.183ZM601.475 423.946V425.023L590.116 424.631V423.946C590.116 420.616 589.528 417.385 588.451 414.349L599.223 410.432C600.692 414.643 601.475 419.245 601.475 423.946ZM589.528 424.631L564.066 423.848C564.066 423.652 564.066 423.554 563.968 423.358L587.863 414.545C588.94 417.483 589.528 420.616 589.528 423.946V424.631ZM534.198 423.26L559.659 424.044C559.659 424.24 559.659 424.338 559.757 424.533L535.863 433.347C534.785 430.409 534.198 427.275 534.198 423.946V423.26ZM563.577 422.575L582.183 405.143C584.631 407.787 586.492 410.823 587.765 414.153L563.87 422.967C563.772 422.869 563.675 422.673 563.577 422.575ZM563.381 422.281C563.283 422.183 563.087 422.085 562.891 421.987L572.586 398.484C576.112 399.953 579.343 402.206 581.987 404.948L563.381 422.281ZM562.499 421.791C562.401 421.791 562.206 421.693 562.108 421.693L562.891 396.232C566.123 396.33 569.257 397.015 572.194 398.19L562.499 421.791ZM561.716 421.693C561.52 421.693 561.422 421.693 561.226 421.791L552.804 397.799C555.644 396.819 558.68 396.33 561.814 396.33H562.499L561.716 421.693ZM560.933 421.889C560.737 421.987 560.639 422.085 560.443 422.183L543.011 403.577C545.753 401.128 548.887 399.072 552.413 397.799L560.933 421.889ZM560.149 422.477C560.051 422.575 559.953 422.771 559.855 422.869L536.744 412.194C538.213 409.061 540.269 406.221 542.718 403.87L560.149 422.477ZM559.757 423.162C559.659 423.358 559.659 423.456 559.659 423.652L534.198 422.869C534.296 419.147 535.177 415.72 536.646 412.488L559.757 423.162ZM559.855 424.827C559.953 424.925 559.953 425.121 560.051 425.219L559.855 425.513L541.543 442.748C539.094 440.104 537.234 437.068 535.961 433.739L559.855 424.827ZM559.366 426.492L547.81 447.743C545.558 446.47 543.599 444.805 541.738 442.944L559.366 426.492ZM560.639 425.807C560.737 425.904 560.835 425.904 560.835 425.904L551.14 449.408C550.16 449.016 549.279 448.526 548.398 448.134L560.639 425.807ZM561.128 426.002C561.226 426.002 561.422 426.1 561.52 426.1L560.737 451.562C557.505 451.464 554.371 450.779 551.433 449.603L561.128 426.002ZM561.814 451.562H561.128L561.912 426.1C562.108 426.1 562.206 426.1 562.401 426.002L570.823 449.995C568.081 451.072 565.046 451.562 561.814 451.562ZM562.793 426.002C562.891 425.904 562.989 425.904 563.185 425.807L575.328 448.134C574.055 448.82 572.684 449.505 571.313 449.995L562.793 426.002ZM564.752 427.373L580.616 444.217C579.147 445.588 577.581 446.763 575.916 447.743L564.752 427.373ZM564.066 426.1L563.577 425.219C563.577 425.121 563.675 425.121 563.675 425.023L586.786 435.697C585.317 438.831 583.26 441.671 580.812 444.021L564.066 426.1ZM563.968 424.729C564.066 424.533 564.066 424.436 564.066 424.24L589.528 425.023C589.43 428.744 588.549 432.172 587.08 435.404L563.968 424.729ZM550.944 449.995L546.635 460.572C545.264 459.984 543.991 459.396 542.718 458.711L548.202 448.624C549.083 449.114 549.964 449.603 550.944 449.995ZM551.335 450.093C554.273 451.268 557.505 451.954 560.835 452.15L560.443 463.607C555.742 463.411 551.238 462.432 547.027 460.767L551.335 450.093ZM561.128 452.15H561.814C565.046 452.15 568.179 451.562 571.019 450.583L574.839 461.355C570.725 462.824 566.319 463.509 561.814 463.509H560.737L561.128 452.15ZM571.411 450.485C572.88 449.995 574.251 449.31 575.524 448.624L581.008 458.711C579.147 459.69 577.189 460.571 575.23 461.355L571.411 450.485ZM599.027 410.04L588.255 413.957C586.982 410.53 585.023 407.396 582.575 404.752L590.899 396.917C594.522 400.835 597.166 405.241 599.027 410.04ZM589.92 395.938L590.703 396.721L582.379 404.556C579.735 401.716 576.405 399.463 572.782 397.897L577.091 387.32C581.792 389.279 586.1 392.217 589.92 395.938ZM576.699 387.124L572.39 397.701C569.452 396.526 566.221 395.84 562.891 395.644L563.283 384.186C567.983 384.48 572.488 385.46 576.699 387.124ZM561.814 384.284H562.891L562.499 395.644H561.814C558.582 395.644 555.448 396.232 552.609 397.211L548.789 386.439C553 385.068 557.309 384.284 561.814 384.284ZM548.495 386.537L552.315 397.309C548.691 398.582 545.46 400.639 542.718 403.185L534.883 394.861C538.898 391.139 543.501 388.397 548.495 386.537ZM533.806 395.938L534.59 395.155L542.424 403.479C539.878 405.927 537.821 408.767 536.254 411.901L525.874 407.102C527.832 402.989 530.476 399.17 533.806 395.938ZM525.776 407.494L536.156 412.292C534.687 415.524 533.806 419.147 533.61 422.869L522.152 422.477C522.446 417.189 523.621 412.096 525.776 407.494ZM522.25 423.946V422.869L533.61 423.26V423.946C533.61 427.275 534.198 430.507 535.275 433.543L524.503 437.46C523.034 433.151 522.25 428.646 522.25 423.946ZM524.699 437.852L535.471 433.935C536.744 437.362 538.703 440.496 541.151 443.14L532.827 450.974C529.203 447.057 526.461 442.65 524.699 437.852ZM533.806 451.954L533.023 451.17L541.347 443.336C543.109 445.197 545.264 446.861 547.516 448.232L542.032 458.319C539.094 456.556 536.352 454.5 533.806 451.954ZM601.182 496.022H522.446L542.228 459.592C543.501 460.278 544.872 460.963 546.243 461.551L544.872 464.978C544.578 464.88 544.187 464.782 543.893 464.782C542.032 464.782 540.563 466.251 540.563 468.112C540.563 469.973 542.032 471.442 543.893 471.442C545.753 471.442 547.222 469.973 547.222 468.112C547.222 466.741 546.439 465.566 545.264 465.076L546.635 461.649C550.944 463.411 555.644 464.391 560.443 464.587L560.345 468.014C558.582 468.014 557.113 469.483 557.113 471.344C557.113 473.204 558.582 474.673 560.443 474.673C562.304 474.673 563.773 473.204 563.773 471.344C563.773 469.581 562.401 468.21 560.737 468.014L560.835 464.587H562.01C566.612 464.587 571.117 463.803 575.426 462.334L576.601 465.664C575.524 466.153 574.741 467.329 574.741 468.7C574.741 470.56 576.21 472.029 578.07 472.029C579.931 472.029 581.4 470.56 581.4 468.7C581.4 466.839 579.931 465.37 578.07 465.37C577.678 465.37 577.385 465.468 576.993 465.566L575.818 462.236C577.874 461.551 579.833 460.572 581.694 459.592L601.182 496.022ZM581.596 458.319L576.112 448.232C577.874 447.155 579.441 445.98 581.008 444.609L588.842 452.933C586.59 455.087 584.142 456.85 581.596 458.319ZM589.92 451.954L589.136 452.737L581.302 444.413C583.848 441.965 585.905 439.125 587.471 435.991L597.852 440.79C595.893 444.805 593.151 448.624 589.92 451.954ZM597.95 440.398L587.569 435.599C589.038 432.368 589.92 428.744 590.116 425.023L601.573 425.415C601.279 430.605 600.104 435.697 597.95 440.398ZM617.732 449.995H660.233V512.278H617.732V449.995Z" fill="#CCE9FF"/>
<path d="M653.967 474.184H696.469V511.886H653.967V474.184ZM489.25 468.602H513.047V500.233H489.25V468.602Z" fill="#CCE9FF"/>
<path d="M638.982 390.746H669.047V512.179H638.982V390.746ZM718.501 512.179H678.84V441.278H708.904L718.501 512.179Z" fill="#CCE9FF"/>
<path d="M701.169 496.021H735.836V512.179H701.169V496.021ZM661.214 365.383H662.291V398.385H661.214V365.383ZM664.739 372.434H665.816V405.436H664.739V372.434ZM658.08 377.036H659.157V410.039H658.08V377.036ZM680.408 435.598H694.608V446.762H680.408V435.598Z" fill="#CCE9FF"/>
<path d="M681.977 431.586H693.043V437.853H681.977V431.586ZM700.191 438.833H702.933V443.337H700.191V438.833ZM703.913 434.72H707.83V443.337H703.913V434.72Z" fill="#CCE9FF"/>
<path d="M658.278 408.178C658.278 407.689 657.886 407.297 657.494 407.297C657.102 407.297 656.711 407.689 656.711 408.178C656.711 408.668 657.102 409.06 657.494 409.06C657.984 409.158 658.278 408.766 658.278 408.178ZM742.791 520.503L737.992 488.285H728.199V461.648H729.374V459.2H724.576V448.819H723.988V459.2H720.757V450.68H720.169V459.2H700.191V461.648H701.562V515.803H678.843V491.516H665.916V431.877H667.091V428.939H664.545V425.218H661.509V415.817H657.984V409.158H657.102V415.817H655.144L653.969 419.538H646.134V425.218H625.667V428.939H623.023V431.877H624.198V470.657H607.06V508.85L588.062 500.428V463.41H591.098V460.668H585.712V453.226H562.6V460.668H554.962V453.226H551.143V460.668H547.225V453.226H542.917V460.668H534.005V463.41H535.376V514.726H526.66V514.138H525.093V499.546H526.66V498.371H525.093V483.682H526.66V482.507H525.093V467.915H526.66V466.74H525.093V452.149H526.66V450.973H525.093V436.382H526.66V435.207H525.093V420.028H527.835V418.853H529.206V415.621H503.647V412.095H504.43V411.018H490.524V412.095H491.406V415.621H485.04V418.853H486.411V420.028H489.055V435.207H487.488V436.382H489.055V450.973H487.488V452.149H489.055V466.74H487.488V467.915H489.055V482.507H487.488V483.682H489.055V498.371H487.488V499.546H489.055V514.138H487.488V515.313H489.055V527.26H480.34V481.136H445.281V514.726H439.601V410.039H435.39V412.683L427.556 414.642V412.879H423.345V415.621L415.608 417.579V415.523H411.397V418.559L403.563 420.517V418.853H399.352V421.497L391.616 423.455V421.986H387.405V524.812H381.431V469.972H359.495V503.659H336.971V474.966H334.131V465.565H335.796V464.586H328.549V461.648H327.766V464.586H325.415V449.309H324.828V464.586H321.792V465.565H323.555V474.966H308.669V496.902H294.274L286.635 524.812H271.554V433.64H251.478V430.408H252.556V429.233H237.377V430.408H238.552V501.309H229.053V477.708H232.48V475.554H208.585V461.354H204.081V458.416H193.896V461.354H185.67V512.179H158.641V474.477H135.824V504.247H116.042V523.343H101.744V499.351H82.9418V519.818H66V554.583H766V520.503H742.791Z" fill="#2D02EC"/>
<g opacity="0.52">
<path d="M188.016 465.074H189.778V466.837H188.016V465.074ZM191.541 465.074H193.304V466.837H191.541V465.074ZM188.016 469.089H189.778V470.852H188.016V469.089ZM191.541 469.089H193.304V470.852H191.541V469.089ZM188.016 473.104H189.778V474.867H188.016V473.104ZM195.458 465.074H197.221V466.837H195.458V465.074Z" fill="white"/>
</g>
<path opacity="0.5" d="M315.131 412.879H316.306V419.44H315.131V412.879ZM319.244 412.879H320.419V419.44H319.244V412.879ZM323.357 412.879H324.532V419.44H323.357V412.879ZM327.372 412.879H328.547V419.44H327.372V412.879ZM331.485 412.879H332.66V419.44H331.485V412.879ZM335.598 412.879H336.773V419.44H335.598V412.879ZM339.613 412.879H340.788V419.44H339.613V412.879ZM343.726 412.879H344.901V419.44H343.726V412.879ZM347.839 412.879H349.014V419.44H347.839V412.879ZM351.854 412.879H353.03V419.44H351.854V412.879ZM355.967 412.879H357.143V419.44H355.967V412.879ZM315.131 421.986H316.306V428.548H315.131V421.986ZM319.244 421.986H320.419V428.548H319.244V421.986ZM323.357 421.986H324.532V428.548H323.357V421.986ZM327.372 421.986H328.547V428.548H327.372V421.986ZM331.485 421.986H332.66V428.548H331.485V421.986ZM335.598 421.986H336.773V428.548H335.598V421.986ZM339.613 421.986H340.788V428.548H339.613V421.986ZM343.726 421.986H344.901V428.548H343.726V421.986ZM347.839 421.986H349.014V428.548H347.839V421.986ZM351.854 421.986H353.03V428.548H351.854V421.986ZM355.967 421.986H357.143V428.548H355.967V421.986ZM315.131 431.094H316.306V437.655H315.131V431.094ZM319.244 431.094H320.419V437.655H319.244V431.094ZM323.357 431.094H324.532V437.655H323.357V431.094ZM327.372 431.094H328.547V437.655H327.372V431.094ZM331.485 431.094H332.66V437.655H331.485V431.094ZM335.598 431.094H336.773V437.655H335.598V431.094ZM339.613 431.094H340.788V437.655H339.613V431.094ZM343.726 431.094H344.901V437.655H343.726V431.094ZM347.839 431.094H349.014V437.655H347.839V431.094ZM351.854 431.094H353.03V437.655H351.854V431.094ZM355.967 431.094H357.143V437.655H355.967V431.094ZM327.372 440.299H328.547V446.86H327.372V440.299ZM331.485 440.299H332.66V446.86H331.485V440.299ZM335.598 440.299H336.773V446.86H335.598V440.299ZM339.613 440.299H340.788V446.86H339.613V440.299ZM343.726 440.299H344.901V446.86H343.726V440.299ZM347.839 440.299H349.014V446.86H347.839V440.299ZM351.854 440.299H353.03V446.86H351.854V440.299ZM355.967 440.299H357.143V446.86H355.967V440.299ZM331.485 449.896H332.66V456.458H331.485V449.896ZM335.598 449.896H336.773V456.458H335.598V449.896ZM339.613 449.896H340.788V456.458H339.613V449.896ZM343.726 449.896H344.901V456.458H343.726V449.896ZM347.839 449.896H349.014V456.458H347.839V449.896ZM351.854 449.896H353.03V456.458H351.854V449.896ZM355.967 449.896H357.143V456.458H355.967V449.896Z" fill="white"/>
<path opacity="0.33" d="M394.064 429.137H396.904V436.188H394.064V429.137ZM394.064 442.749H396.904V449.8H394.064V442.749ZM394.064 456.263H396.904V463.314H394.064V456.263ZM394.064 469.875H396.904V476.926H394.064V469.875ZM394.064 482.704H396.904V489.755H394.064V482.704ZM394.064 496.218H396.904V503.269H394.064V496.218ZM406.11 429.137H408.95V436.188H406.11V429.137ZM406.11 442.749H408.95V449.8H406.11V442.749ZM406.11 456.263H408.95V463.314H406.11V456.263ZM406.11 469.875H408.95V476.926H406.11V469.875ZM406.11 482.704H408.95V489.755H406.11V482.704ZM406.11 496.218H408.95V503.269H406.11V496.218ZM418.057 429.137H420.897V436.188H418.057V429.137ZM418.057 442.749H420.897V449.8H418.057V442.749ZM418.057 456.263H420.897V463.314H418.057V456.263ZM418.057 469.875H420.897V476.926H418.057V469.875ZM418.057 482.704H420.897V489.755H418.057V482.704ZM418.057 496.218H420.897V503.269H418.057V496.218ZM430.102 429.137H432.942V436.188H430.102V429.137ZM430.102 442.749H432.942V449.8H430.102V442.749ZM430.102 456.263H432.942V463.314H430.102V456.263ZM430.102 469.875H432.942V476.926H430.102V469.875ZM430.102 482.704H432.942V489.755H430.102V482.704ZM430.102 496.218H432.942V503.269H430.102V496.218Z" fill="white"/>
<path opacity="0.5" d="M349.016 330.227H351.366V336.396H349.016V330.227ZM354.696 330.227H357.046V336.396H354.696V330.227ZM360.473 330.227H362.824V336.396H360.473V330.227ZM366.251 330.227H368.602V336.396H366.251V330.227ZM349.016 340.509H351.366V346.679H349.016V340.509ZM354.696 340.509H357.046V346.679H354.696V340.509ZM360.473 340.509H362.824V346.679H360.473V340.509ZM366.251 340.509H368.602V346.679H366.251V340.509ZM349.016 350.89H351.366V357.059H349.016V350.89ZM354.696 350.89H357.046V357.059H354.696V350.89ZM372.715 330.227H375.065V336.396H372.715V330.227Z" fill="white"/>
<path opacity="0.4" d="M193.894 393.098H195.363V398.778H193.894V393.098ZM199.182 393.098H200.651V398.778H199.182V393.098ZM205.253 393.098H206.722V398.778H205.253V393.098ZM210.542 393.098H212.011V398.778H210.542V393.098ZM182.338 393.098H183.807V398.778H182.338V393.098ZM187.528 393.098H188.997V398.778H187.528V393.098ZM193.894 402.989H195.363V408.668H193.894V402.989ZM199.182 402.989H200.651V408.668H199.182V402.989ZM205.253 402.989H206.722V408.668H205.253V402.989ZM210.542 402.989H212.011V408.668H210.542V402.989ZM182.338 402.989H183.807V408.668H182.338V402.989ZM187.528 402.989H188.997V408.668H187.528V402.989ZM193.894 412.879H195.363V418.559H193.894V412.879ZM199.182 412.879H200.651V418.559H199.182V412.879ZM205.253 412.879H206.722V418.559H205.253V412.879ZM210.542 412.879H212.011V418.559H210.542V412.879ZM182.338 412.879H183.807V418.559H182.338V412.879ZM187.528 412.879H188.997V418.559H187.528V412.879Z" fill="white"/>
<path opacity="0.5" d="M470.25 436.773H472.502V445.587H470.25V436.773ZM477.301 436.773H479.553V445.587H477.301V436.773ZM483.862 436.773H486.115V445.587H483.862V436.773Z" fill="white"/>
<path opacity="0.33" d="M628.311 438.539H630.073V443.533H628.311V438.539ZM633.795 438.539H635.557V443.533H633.795V438.539Z" fill="white"/>
<path opacity="0.33" d="M628.311 438.539H630.073V443.533H628.311V438.539ZM633.795 438.539H635.557V443.533H633.795V438.539ZM638.985 438.539H640.748V443.533H638.985V438.539ZM644.469 438.539H646.232V443.533H644.469V438.539ZM628.311 447.451H630.073V452.445H628.311V447.451ZM633.795 447.451H635.557V452.445H633.795V447.451Z" fill="white"/>
<path opacity="0.33" d="M628.311 447.449H630.073V452.444H628.311V447.449ZM633.795 447.449H635.557V452.444H633.795V447.449ZM638.985 447.449H640.748V452.444H638.985V447.449ZM644.469 447.449H646.232V452.444H644.469V447.449ZM628.311 456.948H630.073V461.943H628.311V456.948ZM633.795 456.948H635.557V461.943H633.795V456.948Z" fill="white"/>
<path opacity="0.33" d="M628.309 456.948H630.072V461.942H628.309V456.948ZM633.793 456.948H635.556V461.942H633.793V456.948ZM638.983 456.948H640.746V461.942H638.983V456.948ZM644.467 456.948H646.23V461.942H644.467V456.948ZM650.343 438.537H652.106V443.531H650.343V438.537ZM650.343 447.449H652.106V452.443H650.343V447.449ZM655.827 438.537H657.59V443.531H655.827V438.537ZM492.383 423.848H494.243V431.584H492.383V423.848ZM501.686 423.848H503.547V431.584H501.686V423.848ZM510.989 423.848H512.85V431.584H510.989V423.848ZM520.293 423.848H522.153V431.584H520.293V423.848ZM492.383 439.81H494.243V447.547H492.383V439.81ZM501.686 439.81H503.547V447.547H501.686V439.81ZM510.989 439.81H512.85V447.547H510.989V439.81ZM520.293 439.81H522.153V447.547H520.293V439.81ZM492.383 456.066H494.243V463.803H492.383V456.066ZM501.686 456.066H503.547V463.803H501.686V456.066ZM510.989 456.066H512.85V463.803H510.989V456.066ZM520.293 456.066H522.153V463.803H520.293V456.066ZM492.383 472.421H494.243V480.157H492.383V472.421ZM501.686 472.421H503.547V480.157H501.686V472.421ZM510.989 472.421H512.85V480.157H510.989V472.421ZM520.293 472.421H522.153V480.157H520.293V472.421ZM492.383 487.306H494.243V495.042H492.383V487.306ZM501.686 487.306H503.547V495.042H501.686V487.306ZM510.989 487.306H512.85V495.042H510.989V487.306ZM492.383 503.856H494.243V511.592H492.383V503.856ZM501.686 503.856H503.547V511.592H501.686V503.856ZM510.989 503.856H512.85V511.592H510.989V503.856ZM520.293 487.306H522.153V495.042H520.293V487.306ZM703.91 464.782H705.869V469.189H703.91V464.782ZM703.91 471.931H705.869V476.338H703.91V471.931ZM708.807 464.782H710.766V469.189H708.807V464.782Z" fill="white"/>
<path d="M653.675 510.418L660.236 564.181C660.824 568.882 657.494 573.093 652.892 573.68L579.64 582.788C575.038 583.375 570.827 580.046 570.239 575.345L563.678 521.582L653.675 510.418Z" fill="#13025F"/>
<path d="M629.877 510.516L630.373 510.454L630.374 510.458L629.877 510.516ZM629.877 510.516L629.819 510.02L629.815 510.02L629.877 510.516ZM638.757 541.941C648.647 540.688 655.689 531.549 654.451 521.546L654.45 521.544L652.845 508.137L629.939 511.012L629.439 511.075L629.38 510.574L628.303 501.371C628.303 501.371 628.303 501.37 628.303 501.37L628.303 501.369L628.8 501.311L638.757 541.941ZM638.757 541.941H638.593H638.024L638.097 542.505L638.978 549.36L638.978 549.361C639.236 551.336 637.866 553.048 635.979 553.306C634.12 553.559 632.396 552.209 632.135 550.211L631.254 543.357L631.191 542.863L630.697 542.924L595.148 547.331L594.65 547.393L594.714 547.891L595.595 554.746L595.595 554.747C595.853 556.722 594.483 558.435 592.596 558.692C590.737 558.945 589.014 557.596 588.753 555.598C588.753 555.598 588.753 555.597 588.753 555.597L587.871 548.743L587.808 548.249L587.314 548.311L585.747 548.506C575.842 549.745 566.784 542.601 565.544 532.588C565.544 532.588 565.544 532.587 565.544 532.587L563.939 519.18L638.757 541.941ZM620.733 495.442L620.734 495.442L620.672 494.946L620.732 495.442C620.732 495.442 620.733 495.442 620.733 495.442ZM635.917 552.142L635.921 552.142C637.558 551.908 638.735 550.389 638.5 548.738C638.269 547.012 636.756 545.822 635.094 546.059C633.463 546.292 632.289 547.802 632.513 549.446C632.641 551.212 634.187 552.373 635.917 552.142ZM597.009 504.732L597.006 504.732C594.482 505.062 592.623 507.465 592.951 509.991C592.951 509.992 592.951 509.993 592.951 509.993L593.538 514.788L593.599 515.285L594.096 515.223L622.691 511.698L623.186 511.637L623.127 511.142L622.539 506.246L622.538 506.241C622.211 503.73 619.917 501.855 617.377 502.186C617.376 502.186 617.376 502.186 617.375 502.186L597.009 504.732ZM592.403 557.63L592.422 557.628L592.441 557.626C594.077 557.392 595.254 555.873 595.02 554.222C594.788 552.496 593.276 551.306 591.614 551.543C589.976 551.777 588.799 553.298 589.035 554.949C589.268 556.582 590.676 557.745 592.403 557.63Z" fill="#13025F" stroke="#2096C7"/>
<path d="M430.591 607.565C429.415 574.563 429.024 476.046 448.414 429.334C448.414 429.334 507.367 399.857 494.049 460.867L456.444 603.55C462.124 656.824 442.636 700.794 434.41 725.472L433.431 738.987L425.498 736.147L425.596 732.327L422.365 735.069L396.707 726.06L400.037 723.122C416.195 729.683 425.694 722.437 425.694 722.437L430.689 609.328C430.689 608.74 430.591 608.251 430.591 607.565Z" fill="#130160"/>
<path d="M265.091 236.605C265.091 236.605 265.777 236.409 267.833 236.801V236.409C267.736 234.646 269.302 233.961 269.89 233.961C270.478 233.961 275.178 236.115 275.57 236.409C275.864 236.605 279.389 241.306 280.76 242.97L284.677 244.733L280.858 252.47L277.92 250.903L268.225 249.728C267.638 249.63 266.169 249.042 266.071 248.454C265.973 247.965 266.169 247.083 266.365 246.692C265.483 246.496 264.798 246.104 264.7 245.321C264.602 244.244 265.287 243.558 265.581 243.362C264.798 243.068 264.21 242.579 264.112 241.893C264.112 241.012 264.602 240.522 264.896 240.228C264.21 239.837 263.818 239.347 263.818 238.662C263.818 237.095 265.091 236.605 265.091 236.605Z" fill="#DBA17B"/>
<path d="M283.696 243.266L278.701 252.275L282.618 254.332L287.515 245.322L283.696 243.266Z" fill="#E3E3E3"/>
<path d="M380.451 278.228L442.44 295.464C455.954 298.891 467.118 303.69 467.021 317.498C466.923 329.152 456.738 341.197 443.419 336.104C416.685 325.724 397.98 315.931 367.622 299.577C367.524 299.577 367.524 299.479 367.426 299.479L280.465 253.942L285.655 244.051L380.451 278.228ZM514.712 614.714C503.744 583.67 474.169 489.756 478.87 439.224C478.87 439.224 526.366 393.197 531.752 455.383L542.72 603.256C558.389 621.177 553.884 699.913 553.394 725.962L556.528 739.182L548.106 738.889L547.029 735.167L544.777 738.791L517.65 737.909L519.902 734.09C537.236 735.461 544.189 725.668 544.189 725.668L515.398 616.281C515.202 615.791 514.908 615.302 514.712 614.714Z" fill="#130160"/>
<path d="M479.753 274.896C479.753 274.896 483.67 290.957 487.783 305.059L450.766 321.021C452.627 313.872 453.018 291.447 446.457 292.72L462.713 264.908L473.29 264.418L479.753 274.896Z" fill="#CE9474"/>
<path d="M508.442 431.096C509.127 431.782 509.911 432.272 510.694 432.859C516.08 436.385 522.446 435.993 530.084 435.601C532.533 435.503 535.079 435.503 537.821 435.503C547.712 435.797 559.561 437.756 574.251 447.549C570.823 438.735 559.953 429.725 548.201 422.087C542.521 418.268 536.646 414.938 531.26 412C522.054 406.908 514.318 403.48 511.674 402.305C511.086 402.011 510.792 401.913 510.792 401.913L508.442 431.096ZM451.937 309.762C431.861 328.466 429.119 368.813 474.167 435.601L451.937 309.762Z" fill="#270E78"/>
<path d="M441.361 452.247C451.056 457.535 521.566 460.963 531.261 451.464C526.266 399.267 531.456 362.935 534.59 338.845C537.43 315.635 538.312 303.688 526.266 299.967L482.786 285.277L454.68 315.048L451.84 308.878C432.45 349.127 450.763 406.612 441.361 452.247Z" fill="#E3E3E3"/>
<path d="M498.75 358.039C493.07 380.857 505.311 405.633 489.348 424.631C478.184 438.439 460.068 438.146 443.517 437.95C443.028 442.846 442.44 447.547 441.461 452.149C451.156 457.438 521.665 460.865 531.36 451.366C526.366 399.17 531.556 362.838 534.69 338.747C535.473 332.675 536.061 327.387 536.355 322.785C518.531 327.191 502.471 341.685 498.75 358.039ZM482.787 285.18L454.681 315.048C454.681 315.048 467.021 331.598 469.371 333.949L482.787 285.18ZM448.512 325.233L454.681 315.048L451.841 308.879L448.512 325.233Z" fill="#F2F2F2"/>
<path d="M491.696 387.81C513.24 417.972 561.813 425.219 575.719 451.366C577.776 404.653 531.161 387.907 531.161 387.907C534.197 350.988 537.723 333.263 538.8 319.651C539.388 311.62 538.506 303.688 531.064 300.946L482.882 285.277C482.882 285.277 483.274 285.865 483.274 286.061C472.6 324.449 472.991 361.662 491.696 387.81Z" fill="#130160"/>
<path d="M491.893 386.732C484.45 362.445 485.919 350.694 489.836 342.761L482.296 338.844L489.053 335.221C480.925 313.97 483.177 288.606 483.373 285.473C472.601 323.959 472.699 362.837 491.893 386.732Z" fill="#270E78"/>
<path d="M453.015 326.41L451.154 322.297L454.876 316.715L458.499 321.905L454.974 326.606C453.896 359.216 471.328 398.388 527.343 405.733L539.389 422.772L522.153 430.313C472.699 416.211 457.618 382.426 453.505 356.964L453.407 356.67C450.861 340.805 452.721 328.368 453.015 326.41Z" fill="#130160"/>
<path d="M443.614 235.332L436.856 245.713L433.429 256.191L434.408 258.737L425.986 274.798L432.352 277.736L436.073 296.832C436.073 297.811 436.856 298.594 437.836 298.692C444.593 299.28 464.864 298.497 469.859 279.792C474.07 264.025 475.147 255.799 475.147 255.799C475.147 255.799 473.58 241.11 443.614 235.332Z" fill="#DBA17B"/>
<path d="M460.754 267.454C456.641 265.692 455.661 257.27 455.172 250.121C454.976 247.477 452.821 245.322 450.177 245.42L441.951 247.379C426.674 250.219 430.004 222.505 444.889 218C444.889 218 443.518 221.036 455.466 226.618C461.537 229.458 471.036 231.71 478.087 233.571C484.844 235.334 489.055 242.091 487.782 249.044L481.809 281.165C481.809 281.165 466.727 276.464 472.114 265.006C477.304 253.646 461.537 248.652 460.754 267.454Z" fill="#130160"/>
<path d="M608.428 509.145C608.428 509.145 607.743 508.753 606.568 507.088L606.274 507.382C605.099 508.753 603.532 508.068 603.14 507.676C602.748 507.284 600.79 502.388 600.692 501.898C600.594 501.506 601.182 495.729 601.475 493.574L599.811 489.559L607.841 486.621L608.918 489.853L615.088 497.491C615.479 497.981 616.067 499.352 615.675 499.94C615.381 500.331 614.598 500.821 614.304 501.115C614.794 501.898 614.99 502.682 614.598 503.269C614.01 504.15 612.933 504.15 612.639 504.053C613.031 504.836 613.129 505.619 612.639 506.109C612.15 506.697 611.366 506.795 610.877 506.795C611.072 507.578 611.072 508.166 610.583 508.655C609.701 509.635 608.428 509.145 608.428 509.145Z" fill="#DBA17B"/>
<path d="M599.518 491.321L609.213 488.285L607.842 484.172L598.146 487.11L599.518 491.321Z" fill="#E3E3E3"/>
<path d="M517.55 309.467C525.482 301.045 541.151 299.577 547.223 312.503C559.562 338.748 566.319 358.922 577.091 391.826V392.022L608.918 485.74L598.44 489.168L553.294 398.289V398.192L520.292 342.666C512.849 330.718 508.051 319.456 517.55 309.467Z" fill="#130160"/>
</svg>
