<svg viewBox="0 0 700 553" fill="none" xmlns="http://www.w3.org/2000/svg">
    <path d="M618.423 520.299C614.799 551.441 518.045 559.863 401.607 546.25C285.071 532.638 185.476 566.424 189.1 535.184C192.723 503.945 292.024 473.293 408.56 486.905C525.096 500.517 622.046 489.158 618.423 520.299Z"
          fill="#CCE9FF"/>
    <path d="M191.254 163.738H222.102V286.738H191.254V163.738Z" fill="#E3E3E3"/>
    <path d="M196.25 154.924H217.011V206.631H196.25V154.924Z" fill="#E3E3E3"/>
    <path d="M200.852 149.342H212.407V178.036H200.852V149.342Z" fill="#E3E3E3"/>
    <path d="M210.549 164.13H202.715V144.544H210.549V164.13Z" fill="#E3E3E3"/>
    <path d="M206.142 155.61H205.26V136.024H206.142V155.61ZM208.002 148.853H207.219V129.267H208.002V148.853ZM190.375 163.445H222.888V164.718H190.375V163.445Z"
          fill="#E3E3E3"/>
    <path d="M195.465 154.337H217.793V155.61H195.465V154.337ZM200.068 148.853H212.896V149.832H200.068V148.853Z"
          fill="#E3E3E3"/>
    <path opacity="0.29"
          d="M198.207 157.079H199.186V162.465H198.207V157.079ZM200.851 157.079H201.83V162.465H200.851V157.079ZM203.495 157.079H204.475V162.465H203.495V157.079ZM206.237 157.079H207.217V162.465H206.237V157.079ZM208.881 157.079H209.861V162.465H208.881V157.079ZM211.525 157.079H212.505V162.465H211.525V157.079ZM214.267 157.079H215.247V162.465H214.267V157.079Z"
          fill="#E3E3E3"/>
    <path d="M193.898 168.732H196.249V175.196H193.898V168.732Z" fill="#E3E3E3"/>
    <path opacity="0.29" d="M198.504 168.732H200.854V175.196H198.504V168.732Z" fill="#E3E3E3"/>
    <path d="M203.202 168.732H205.552V175.196H203.202V168.732ZM207.804 168.732H210.155V175.196H207.804V168.732ZM212.407 168.732H214.757V175.196H212.407V168.732ZM217.01 168.732H219.36V175.196H217.01V168.732ZM193.898 178.721H196.249V185.185H193.898V178.721ZM198.501 178.721H200.851V185.185H198.501V178.721ZM203.202 178.721H205.552V185.185H203.202V178.721Z"
          fill="#E3E3E3"/>
    <path opacity="0.29" d="M207.805 178.721H210.155V185.185H207.805V178.721Z" fill="#E3E3E3"/>
    <path d="M212.407 178.721H214.757V185.185H212.407V178.721ZM217.01 178.721H219.36V185.185H217.01V178.721ZM193.898 188.71H196.249V195.173H193.898V188.71ZM198.501 188.71H200.851V195.173H198.501V188.71ZM203.202 188.71H205.552V195.173H203.202V188.71ZM207.804 188.71H210.155V195.173H207.804V188.71Z"
          fill="#E3E3E3"/>
    <path opacity="0.29"
          d="M212.407 188.71H214.757V195.173H212.407V188.71ZM217.01 188.71H219.36V195.173H217.01V188.71ZM193.898 198.699H196.249V205.162H193.898V198.699Z"
          fill="#E3E3E3"/>
    <path d="M198.501 198.699H200.851V205.162H198.501V198.699ZM203.202 198.699H205.552V205.162H203.202V198.699ZM207.804 198.699H210.155V205.162H207.804V198.699ZM212.407 198.699H214.757V205.162H212.407V198.699ZM217.01 198.699H219.36V205.162H217.01V198.699ZM193.898 208.688H196.249V215.151H193.898V208.688Z"
          fill="#E3E3E3"/>
    <path opacity="0.29" d="M198.504 208.688H200.854V215.151H198.504V208.688Z" fill="#E3E3E3"/>
    <path d="M203.203 208.688H205.553V215.151H203.203V208.688Z" fill="#E3E3E3"/>
    <path opacity="0.29" d="M207.805 208.688H210.155V215.151H207.805V208.688Z" fill="#E3E3E3"/>
    <path d="M212.407 208.688H214.757V215.151H212.407V208.688ZM217.01 208.688H219.36V215.151H217.01V208.688ZM193.898 218.774H196.249V225.238H193.898V218.774ZM198.501 218.774H200.851V225.238H198.501V218.774ZM203.202 218.774H205.552V225.238H203.202V218.774ZM207.804 218.774H210.155V225.238H207.804V218.774ZM212.407 218.774H214.757V225.238H212.407V218.774Z"
          fill="#E3E3E3"/>
    <path opacity="0.29" d="M217.008 218.774H219.358V225.238H217.008V218.774Z" fill="#E3E3E3"/>
    <path d="M193.898 228.763H196.249V235.227H193.898V228.763Z" fill="#E3E3E3"/>
    <path opacity="0.29"
          d="M198.504 228.763H200.854V235.227H198.504V228.763ZM203.205 228.763H205.555V235.227H203.205V228.763Z"
          fill="#E3E3E3"/>
    <path d="M207.804 228.763H210.155V235.227H207.804V228.763ZM212.407 228.763H214.757V235.227H212.407V228.763ZM217.01 228.763H219.36V235.227H217.01V228.763ZM193.898 238.752H196.249V245.215H193.898V238.752ZM198.501 238.752H200.851V245.215H198.501V238.752ZM203.202 238.752H205.552V245.215H203.202V238.752ZM207.804 238.752H210.155V245.215H207.804V238.752Z"
          fill="#E3E3E3"/>
    <path opacity="0.29" d="M212.406 238.752H214.757V245.215H212.406V238.752Z" fill="#E3E3E3"/>
    <path d="M217.01 238.752H219.36V245.215H217.01V238.752ZM193.898 248.741H196.249V255.204H193.898V248.741Z"
          fill="#E3E3E3"/>
    <path opacity="0.29" d="M198.504 248.741H200.854V255.204H198.504V248.741Z" fill="#E3E3E3"/>
    <path d="M203.202 248.741H205.552V255.204H203.202V248.741ZM207.804 248.741H210.155V255.204H207.804V248.741ZM212.407 248.741H214.757V255.204H212.407V248.741ZM217.01 248.741H219.36V255.204H217.01V248.741ZM193.898 258.827H196.249V265.291H193.898V258.827ZM198.501 258.827H200.851V265.291H198.501V258.827ZM203.202 258.827H205.552V265.291H203.202V258.827Z"
          fill="#E3E3E3"/>
    <path opacity="0.29" d="M207.805 258.828H210.155V265.291H207.805V258.828Z" fill="#E3E3E3"/>
    <path d="M212.406 258.828H214.757V265.291H212.406V258.828Z" fill="#E3E3E3"/>
    <path opacity="0.29"
          d="M217.01 258.828H219.36V265.291H217.01V258.828ZM193.898 268.816H196.249V275.28H193.898V268.816Z"
          fill="#E3E3E3"/>
    <path d="M198.504 268.816H200.854V275.28H198.504V268.816Z" fill="#E3E3E3"/>
    <path opacity="0.29" d="M203.203 268.816H205.553V275.28H203.203V268.816Z" fill="#E3E3E3"/>
    <path d="M207.804 268.816H210.155V275.28H207.804V268.816ZM212.407 268.816H214.757V275.28H212.407V268.816ZM217.01 268.816H219.36V275.28H217.01V268.816ZM101.551 168.438H151.201V272.048H101.551V168.438Z"
          fill="#E3E3E3"/>
    <path d="M100.082 166.676H152.572V169.614H100.082V166.676Z" fill="#E3E3E3"/>
    <path d="M103.215 162.955H149.535V176.861H103.215V162.955Z" fill="#E3E3E3"/>
    <path d="M106.742 157.274H125.055V172.453H106.742V157.274Z" fill="#E3E3E3"/>
    <path d="M117.319 161.486H106.742V153.554H114.283L117.319 161.486Z" fill="#E3E3E3"/>
    <path d="M110.949 146.894H112.026V164.717H110.949V146.894Z" fill="#E3E3E3"/>
    <path d="M111.542 146.796C112.028 146.796 112.423 146.401 112.423 145.915C112.423 145.428 112.028 145.033 111.542 145.033C111.055 145.033 110.66 145.428 110.66 145.915C110.66 146.401 111.055 146.796 111.542 146.796Z"
          fill="#E3E3E3"/>
    <path d="M562.312 279.882H507.961L501.204 127.602L562.312 140.333V279.882ZM325.225 192.921V141.998H316.705V128.385H313.669V108.408H296.825V93.7184H295.356V108.408H292.125V89.9971H290.558V108.408H279.982V141.998H274.497V192.921H269.797V285.66H328.555V192.921H325.225Z"
          fill="#E3E3E3"/>
    <path d="M414.338 289.675H385.645L396.808 232.093H414.338V289.675Z" fill="#8CAAA7"/>
    <path d="M8.8125 291.928H690.696V336.583H8.8125V291.928ZM390.835 183.128V157.568H381.532V147.873H376.636V139.745H374.873V125.741H374.481V139.745H372.718V147.873H367.822V157.568H358.617V183.128H356.756V229.449H342.458V282.233H392.598V183.128H390.835ZM443.913 212.409H399.159V213.29H401.216V288.794H441.857V213.29H443.913V212.409Z"
          fill="#CCE9FF"/>
    <path d="M200.461 231.31H240.122V294.278H200.461V231.31ZM126.328 263.528H194.487V294.18H126.328V263.528Z"
          fill="#CCE9FF"/>
    <path d="M162.855 194.978H177.839V270.383H162.855V194.978Z" fill="#CCE9FF"/>
    <path d="M166.188 174.804H166.971V215.837H166.188V174.804ZM168.734 177.938H169.517V218.97H168.734V177.938Z"
          fill="#CCE9FF"/>
    <path d="M164.031 190.277H173.139V200.364H164.031V190.277ZM191.843 242.571H217.892V294.278H191.843V242.571ZM246.488 187.829H295.355V294.18H246.488V187.829Z"
          fill="#CCE9FF"/>
    <path d="M251.285 184.205H290.555V201.93H251.285V184.205Z" fill="#CCE9FF"/>
    <path d="M242.67 190.081H299.077V191.354H242.67V190.081ZM237.675 240.515H260.689V294.278H237.675V240.515ZM72.6641 238.458H99.105V294.18H72.6641V238.458Z"
          fill="#CCE9FF"/>
    <path d="M81.2783 223.279H133.964V294.18H81.2783V223.279ZM78.1445 220.537H135.237V223.279H78.1445V220.537Z"
          fill="#CCE9FF"/>
    <path d="M83.6291 213.192H106.74V227.588H83.6291V213.192ZM114.281 213.192H118.198V221.908H114.281V213.192ZM122.017 213.192H126.326V221.908H122.017V213.192ZM58.3633 272.636H85.9794V294.18H58.3633V272.636Z"
          fill="#CCE9FF"/>
    <path d="M47.8867 263.528H60.9113V294.18H47.8867V263.528Z" fill="#CCE9FF"/>
    <path d="M32.1172 283.408H54.4451V294.18H32.1172V283.408ZM290.553 270.285H565.735V294.18H290.553V270.285Z"
          fill="#CCE9FF"/>
    <path d="M543.703 204.183C541.941 204.183 540.57 205.554 540.374 207.219L536.457 207.121V205.946C536.457 201.147 535.673 196.447 534.008 192.04L537.24 190.865C537.73 192.04 538.905 192.823 540.276 192.823C542.136 192.823 543.605 191.354 543.605 189.494C543.605 187.633 542.136 186.164 540.276 186.164C538.415 186.164 536.946 187.633 536.946 189.494C536.946 189.787 537.044 190.179 537.044 190.473L533.813 191.648C531.952 186.752 529.112 182.149 525.489 178.134L528.035 175.784C528.622 176.371 529.406 176.665 530.287 176.665C532.148 176.665 533.617 175.196 533.617 173.335C533.617 171.475 532.148 170.006 530.287 170.006C528.426 170.006 526.957 171.475 526.957 173.335C526.957 174.119 527.251 174.902 527.741 175.49L525.195 177.84C524.901 177.546 524.705 177.253 524.411 177.057C520.592 173.237 516.087 170.202 511.289 168.243L512.66 164.815C512.953 164.913 513.345 165.011 513.639 165.011C515.5 165.011 516.969 163.542 516.969 161.682C516.969 159.821 515.5 158.352 513.639 158.352C511.778 158.352 510.309 159.821 510.309 161.682C510.309 163.053 511.093 164.228 512.268 164.718L510.897 168.145C506.588 166.382 501.887 165.403 497.089 165.207L497.285 160.605H497.383C499.243 160.605 500.712 159.136 500.712 157.275C500.712 155.414 499.243 153.945 497.383 153.945C495.522 153.945 494.053 155.414 494.053 157.275C494.053 158.94 495.326 160.311 496.893 160.507L496.697 165.207H495.522C490.919 165.207 486.415 165.991 482.106 167.46L480.735 163.64C481.91 163.151 482.791 161.976 482.791 160.605C482.791 158.744 481.322 157.275 479.462 157.275C477.601 157.275 476.132 158.744 476.132 160.605C476.132 162.465 477.601 163.934 479.462 163.934C479.755 163.934 480.049 163.934 480.343 163.836L481.714 167.655C476.524 169.516 471.823 172.356 467.71 176.175L465.262 173.629C465.849 173.042 466.143 172.258 466.143 171.377C466.143 169.516 464.674 168.047 462.814 168.047C460.953 168.047 459.484 169.516 459.484 171.377C459.484 173.237 460.953 174.706 462.814 174.706C463.597 174.706 464.38 174.413 464.968 173.923L467.416 176.469C467.123 176.763 466.829 176.959 466.633 177.253C463.205 180.68 460.463 184.597 458.505 188.808L455.469 187.437C455.567 187.143 455.665 186.752 455.665 186.36C455.665 184.499 454.196 183.03 452.335 183.03C450.475 183.03 449.006 184.499 449.006 186.36C449.006 188.221 450.475 189.69 452.335 189.69C453.706 189.69 454.783 188.906 455.371 187.731L458.407 189.102C456.252 193.901 454.979 199.091 454.783 204.477L450.866 204.379C450.866 202.616 449.397 201.147 447.537 201.147C445.676 201.147 444.207 202.616 444.207 204.477C444.207 206.338 445.676 207.807 447.537 207.807C449.299 207.807 450.67 206.436 450.866 204.771L454.783 204.869V206.044C454.783 210.842 455.567 215.543 457.232 219.95L454.294 221.027C453.804 219.852 452.629 219.068 451.258 219.068C449.397 219.068 447.928 220.537 447.928 222.398C447.928 224.259 449.397 225.728 451.258 225.728C453.119 225.728 454.588 224.259 454.588 222.398C454.588 222.104 454.49 221.713 454.49 221.419L457.721 220.244C459.582 225.14 462.422 229.743 466.045 233.758L463.499 236.108C462.912 235.521 462.128 235.227 461.247 235.227C459.386 235.227 457.917 236.696 457.917 238.556C457.917 240.417 459.386 241.886 461.247 241.886C463.107 241.886 464.576 240.417 464.576 238.556C464.576 237.773 464.283 236.99 463.793 236.402L466.339 234.052C466.633 234.345 466.829 234.639 467.123 234.835C469.669 237.381 472.607 239.634 475.642 241.396L455.665 278.12H452.041V279.197H450.279V281.254H541.353V279.197H539.59V278.12H535.967L515.989 241.396C518.633 239.829 521.18 238.067 523.432 235.912L526.664 239.34C525.978 239.927 525.489 240.809 525.489 241.788C525.489 243.649 526.957 245.118 528.818 245.118C530.679 245.118 532.148 243.649 532.148 241.788C532.148 239.927 530.679 238.458 528.818 238.458C528.133 238.458 527.447 238.654 526.957 239.046L523.726 235.618C524.02 235.325 524.313 235.129 524.509 234.835C527.937 231.408 530.679 227.49 532.637 223.279L536.261 224.944C536.163 225.238 536.163 225.434 536.163 225.728C536.163 227.588 537.632 229.057 539.492 229.057C541.353 229.057 542.822 227.588 542.822 225.728C542.822 223.867 541.353 222.398 539.492 222.398C538.121 222.398 536.848 223.279 536.359 224.552L532.833 222.888C534.988 218.089 536.261 212.899 536.457 207.513L540.374 207.611C540.374 209.373 541.843 210.842 543.703 210.842C545.564 210.842 547.033 209.373 547.033 207.513C547.033 205.652 545.564 204.183 543.703 204.183ZM535.477 205.946V207.023L524.117 206.631V205.946C524.117 202.616 523.53 199.385 522.453 196.349L533.225 192.432C534.694 196.643 535.477 201.245 535.477 205.946ZM523.53 206.631L498.068 205.848C498.068 205.652 498.068 205.554 497.97 205.358L521.865 196.545C522.942 199.483 523.53 202.616 523.53 205.946V206.631ZM468.2 205.26L493.661 206.044C493.661 206.24 493.661 206.338 493.759 206.533L469.865 215.347C468.787 212.409 468.2 209.275 468.2 205.946V205.26ZM497.579 204.575L516.185 187.143C518.633 189.787 520.494 192.823 521.767 196.153L497.872 204.967C497.774 204.869 497.677 204.673 497.579 204.575ZM497.383 204.281C497.285 204.183 497.089 204.085 496.893 203.987L506.588 180.484C510.114 181.953 513.345 184.206 515.989 186.948L497.383 204.281ZM496.501 203.791C496.403 203.791 496.208 203.693 496.11 203.693L496.893 178.232C500.125 178.33 503.258 179.015 506.196 180.19L496.501 203.791ZM495.718 203.693C495.522 203.693 495.424 203.693 495.228 203.791L486.806 179.799C489.646 178.819 492.682 178.33 495.816 178.33H496.501L495.718 203.693ZM494.934 203.889C494.739 203.987 494.641 204.085 494.445 204.183L477.013 185.577C479.755 183.128 482.889 181.072 486.415 179.799L494.934 203.889ZM494.151 204.477C494.053 204.575 493.955 204.771 493.857 204.869L470.746 194.194C472.215 191.061 474.271 188.221 476.72 185.87L494.151 204.477ZM493.759 205.162C493.661 205.358 493.661 205.456 493.661 205.652L468.2 204.869C468.298 201.147 469.179 197.72 470.648 194.488L493.759 205.162ZM493.857 206.827C493.955 206.925 493.955 207.121 494.053 207.219L493.857 207.513L475.544 224.748C473.096 222.104 471.236 219.068 469.962 215.739L493.857 206.827ZM493.368 208.492L481.812 229.743C479.56 228.47 477.601 226.805 475.74 224.944L493.368 208.492ZM494.641 207.807C494.739 207.904 494.837 207.904 494.837 207.904L485.142 231.408C484.162 231.016 483.281 230.526 482.4 230.134L494.641 207.807ZM495.13 208.002C495.228 208.002 495.424 208.1 495.522 208.1L494.739 233.562C491.507 233.464 488.373 232.779 485.435 231.603L495.13 208.002ZM495.816 233.562H495.13L495.914 208.1C496.11 208.1 496.208 208.1 496.403 208.002L504.825 231.995C502.083 233.072 499.048 233.562 495.816 233.562ZM496.795 208.002C496.893 207.904 496.991 207.904 497.187 207.807L509.33 230.134C508.057 230.82 506.686 231.505 505.315 231.995L496.795 208.002ZM498.754 209.373L514.618 226.217C513.149 227.588 511.582 228.763 509.918 229.743L498.754 209.373ZM498.068 208.1L497.579 207.219C497.579 207.121 497.677 207.121 497.677 207.023L520.788 217.697C519.319 220.831 517.262 223.671 514.814 226.021L498.068 208.1ZM497.97 206.729C498.068 206.533 498.068 206.436 498.068 206.24L523.53 207.023C523.432 210.744 522.551 214.172 521.082 217.404L497.97 206.729ZM484.946 231.995L480.637 242.572C479.266 241.984 477.993 241.396 476.72 240.711L482.204 230.624C483.085 231.114 483.966 231.603 484.946 231.995ZM485.337 232.093C488.275 233.268 491.507 233.954 494.837 234.15L494.445 245.607C489.744 245.411 485.239 244.432 481.028 242.767L485.337 232.093ZM495.13 234.15H495.816C499.048 234.15 502.181 233.562 505.021 232.583L508.84 243.355C504.727 244.824 500.321 245.509 495.816 245.509H494.739L495.13 234.15ZM505.413 232.485C506.882 231.995 508.253 231.31 509.526 230.624L515.01 240.711C513.149 241.69 511.191 242.571 509.232 243.355L505.413 232.485ZM533.029 192.04L522.257 195.957C520.984 192.53 519.025 189.396 516.577 186.752L524.901 178.917C528.524 182.835 531.168 187.241 533.029 192.04ZM523.922 177.938L524.705 178.721L516.381 186.556C513.737 183.716 510.407 181.463 506.784 179.897L511.093 169.32C515.793 171.279 520.102 174.217 523.922 177.938ZM510.701 169.124L506.392 179.701C503.454 178.526 500.223 177.84 496.893 177.644L497.285 166.186C501.985 166.48 506.49 167.46 510.701 169.124ZM495.816 166.284H496.893L496.501 177.644H495.816C492.584 177.644 489.45 178.232 486.61 179.211L482.791 168.439C487.002 167.068 491.311 166.284 495.816 166.284ZM482.497 168.537L486.317 179.309C482.693 180.582 479.462 182.639 476.72 185.185L468.885 176.861C472.9 173.139 477.503 170.397 482.497 168.537ZM467.808 177.938L468.591 177.155L476.426 185.479C473.88 187.927 471.823 190.767 470.256 193.901L459.876 189.102C461.834 184.989 464.478 181.17 467.808 177.938ZM459.778 189.494L470.158 194.292C468.689 197.524 467.808 201.147 467.612 204.869L456.154 204.477C456.448 199.189 457.623 194.096 459.778 189.494ZM456.252 205.946V204.869L467.612 205.26V205.946C467.612 209.275 468.2 212.507 469.277 215.543L458.505 219.46C457.036 215.151 456.252 210.646 456.252 205.946ZM458.701 219.852L469.473 215.935C470.746 219.362 472.704 222.496 475.153 225.14L466.829 232.974C463.205 229.057 460.463 224.65 458.701 219.852ZM467.808 233.954L467.025 233.17L475.349 225.336C477.111 227.197 479.266 228.861 481.518 230.232L476.034 240.319C473.096 238.556 470.354 236.5 467.808 233.954ZM535.183 278.022H456.448L476.23 241.592C477.503 242.278 478.874 242.963 480.245 243.551L478.874 246.978C478.58 246.88 478.189 246.782 477.895 246.782C476.034 246.782 474.565 248.251 474.565 250.112C474.565 251.973 476.034 253.442 477.895 253.442C479.755 253.442 481.224 251.973 481.224 250.112C481.224 248.741 480.441 247.566 479.266 247.076L480.637 243.649C484.946 245.411 489.646 246.391 494.445 246.587L494.347 250.014C492.584 250.014 491.115 251.483 491.115 253.344C491.115 255.204 492.584 256.673 494.445 256.673C496.306 256.673 497.774 255.204 497.774 253.344C497.774 251.581 496.403 250.21 494.739 250.014L494.837 246.587H496.012C500.614 246.587 505.119 245.803 509.428 244.334L510.603 247.664C509.526 248.153 508.743 249.329 508.743 250.7C508.743 252.56 510.211 254.029 512.072 254.029C513.933 254.029 515.402 252.56 515.402 250.7C515.402 248.839 513.933 247.37 512.072 247.37C511.68 247.37 511.387 247.468 510.995 247.566L509.82 244.236C511.876 243.551 513.835 242.572 515.696 241.592L535.183 278.022ZM515.598 240.319L510.114 230.232C511.876 229.155 513.443 227.98 515.01 226.609L522.844 234.933C520.592 237.087 518.144 238.85 515.598 240.319ZM523.922 233.954L523.138 234.737L515.304 226.413C517.85 223.965 519.906 221.125 521.473 217.991L531.854 222.79C529.895 226.805 527.153 230.624 523.922 233.954ZM531.952 222.398L521.571 217.599C523.04 214.368 523.922 210.744 524.117 207.023L535.575 207.415C535.281 212.605 534.106 217.697 531.952 222.398ZM551.734 231.995H594.235V294.278H551.734V231.995Z"
          fill="#CCE9FF"/>
    <path d="M587.967 256.184H630.469V293.886H587.967V256.184ZM423.25 250.602H447.047V282.233H423.25V250.602Z"
          fill="#CCE9FF"/>
    <path d="M572.982 172.748H603.047V294.18H572.982V172.748ZM652.501 294.18H612.84V223.279H642.904L652.501 294.18Z"
          fill="#CCE9FF"/>
    <path d="M635.169 278.022H669.836V294.18H635.169V278.022ZM595.214 147.384H596.291V180.386H595.214V147.384ZM598.739 154.435H599.816V187.437H598.739V154.435ZM592.08 159.037H593.157V192.04H592.08V159.037ZM614.408 217.599H628.608V228.763H614.408V217.599Z"
          fill="#CCE9FF"/>
    <path d="M615.977 213.584H627.043V219.851H615.977V213.584ZM634.191 220.831H636.933V225.336H634.191V220.831ZM637.913 216.718H641.83V225.336H637.913V216.718Z"
          fill="#CCE9FF"/>
    <path d="M592.278 190.179C592.278 189.69 591.886 189.298 591.494 189.298C591.102 189.298 590.711 189.69 590.711 190.179C590.711 190.669 591.102 191.061 591.494 191.061C591.984 191.158 592.278 190.767 592.278 190.179ZM676.791 302.504L671.992 270.286H662.199V243.649H663.374V241.2H658.576V230.82H657.988V241.2H654.757V232.681H654.169V241.2H634.191V243.649H635.562V297.804H612.843V273.517H599.916V213.878H601.091V210.94H598.545V207.219H595.509V197.818H591.984V191.159H591.102V197.818H589.144L587.969 201.539H580.134V207.219H559.667V210.94H557.023V213.878H558.198V252.658H541.06V290.851L522.062 282.429V245.411H525.098V242.669H519.712V235.227H496.6V242.669H488.962V235.227H485.143V242.669H481.225V235.227H476.917V242.669H468.005V245.411H469.376V296.726H460.66V296.139H459.093V281.547H460.66V280.372H459.093V265.683H460.66V264.508H459.093V249.916H460.66V248.741H459.093V234.15H460.66V232.974H459.093V218.383H460.66V217.208H459.093V202.029H461.835V200.854H463.206V197.622H437.647V194.096H438.43V193.019H424.524V194.096H425.406V197.622H419.04V200.854H420.411V202.029H423.055V217.208H421.488V218.383H423.055V232.974H421.488V234.15H423.055V248.741H421.488V249.916H423.055V264.508H421.488V265.683H423.055V280.372H421.488V281.547H423.055V296.139H421.488V297.314H423.055V309.261H414.34V263.137H379.281V296.726H373.601V192.04H369.39V194.684L361.556 196.643V194.88H357.345V197.622L349.608 199.58V197.524H345.397V200.56L337.563 202.518V200.854H333.352V203.498L325.616 205.456V203.987H321.405V306.813H315.431V251.973H293.495V285.66H270.971V256.967H268.131V247.566H269.796V246.587H262.549V243.649H261.766V246.587H259.415V231.31H258.828V246.587H255.792V247.566H257.555V256.967H242.669V278.903H228.274L220.635 306.813H205.554V215.641H185.478V212.409H186.556V211.234H171.377V212.409H172.552V283.31H163.053V259.709H166.48V257.555H142.585V243.355H138.081V240.417H127.896V243.355H119.67V294.18H92.6413V256.477H69.8237V286.248H50.042V305.344H35.7443V281.352H16.9418V301.819H0V336.584H700V302.504H676.791Z"
          fill="#2D02EC"/>
    <g opacity="0.52">
        <path d="M122.016 247.076H123.778V248.839H122.016V247.076ZM125.541 247.076H127.304V248.839H125.541V247.076ZM122.016 251.091H123.778V252.854H122.016V251.091ZM125.541 251.091H127.304V252.854H125.541V251.091ZM122.016 255.106H123.778V256.869H122.016V255.106ZM129.458 247.076H131.221V248.839H129.458V247.076Z"
              fill="white"/>
    </g>
    <path opacity="0.5"
          d="M249.133 194.88H250.308V201.441H249.133V194.88ZM253.246 194.88H254.421V201.441H253.246V194.88ZM257.359 194.88H258.534V201.441H257.359V194.88ZM261.374 194.88H262.549V201.441H261.374V194.88ZM265.487 194.88H266.662V201.441H265.487V194.88ZM269.6 194.88H270.775V201.441H269.6V194.88ZM273.615 194.88H274.79V201.441H273.615V194.88ZM277.728 194.88H278.903V201.441H277.728V194.88ZM281.841 194.88H283.016V201.441H281.841V194.88ZM285.856 194.88H287.032V201.441H285.856V194.88ZM289.969 194.88H291.145V201.441H289.969V194.88ZM249.133 203.987H250.308V210.549H249.133V203.987ZM253.246 203.987H254.421V210.549H253.246V203.987ZM257.359 203.987H258.534V210.549H257.359V203.987ZM261.374 203.987H262.549V210.549H261.374V203.987ZM265.487 203.987H266.662V210.549H265.487V203.987ZM269.6 203.987H270.775V210.549H269.6V203.987ZM273.615 203.987H274.79V210.549H273.615V203.987ZM277.728 203.987H278.903V210.549H277.728V203.987ZM281.841 203.987H283.016V210.549H281.841V203.987ZM285.856 203.987H287.032V210.549H285.856V203.987ZM289.969 203.987H291.145V210.549H289.969V203.987ZM249.133 213.095H250.308V219.656H249.133V213.095ZM253.246 213.095H254.421V219.656H253.246V213.095ZM257.359 213.095H258.534V219.656H257.359V213.095ZM261.374 213.095H262.549V219.656H261.374V213.095ZM265.487 213.095H266.662V219.656H265.487V213.095ZM269.6 213.095H270.775V219.656H269.6V213.095ZM273.615 213.095H274.79V219.656H273.615V213.095ZM277.728 213.095H278.903V219.656H277.728V213.095ZM281.841 213.095H283.016V219.656H281.841V213.095ZM285.856 213.095H287.032V219.656H285.856V213.095ZM289.969 213.095H291.145V219.656H289.969V213.095ZM261.374 222.3H262.549V228.861H261.374V222.3ZM265.487 222.3H266.662V228.861H265.487V222.3ZM269.6 222.3H270.775V228.861H269.6V222.3ZM273.615 222.3H274.79V228.861H273.615V222.3ZM277.728 222.3H278.903V228.861H277.728V222.3ZM281.841 222.3H283.016V228.861H281.841V222.3ZM285.856 222.3H287.032V228.861H285.856V222.3ZM289.969 222.3H291.145V228.861H289.969V222.3ZM265.487 231.897H266.662V238.459H265.487V231.897ZM269.6 231.897H270.775V238.459H269.6V231.897ZM273.615 231.897H274.79V238.459H273.615V231.897ZM277.728 231.897H278.903V238.459H277.728V231.897ZM281.841 231.897H283.016V238.459H281.841V231.897ZM285.856 231.897H287.032V238.459H285.856V231.897ZM289.969 231.897H291.145V238.459H289.969V231.897Z"
          fill="white"/>
    <path opacity="0.33"
          d="M328.062 211.136H330.902V218.187H328.062V211.136ZM328.062 224.748H330.902V231.799H328.062V224.748ZM328.062 238.262H330.902V245.313H328.062V238.262ZM328.062 251.874H330.902V258.925H328.062V251.874ZM328.062 264.703H330.902V271.754H328.062V264.703ZM328.062 278.217H330.902V285.268H328.062V278.217ZM340.108 211.136H342.948V218.187H340.108V211.136ZM340.108 224.748H342.948V231.799H340.108V224.748ZM340.108 238.262H342.948V245.313H340.108V238.262ZM340.108 251.874H342.948V258.925H340.108V251.874ZM340.108 264.703H342.948V271.754H340.108V264.703ZM340.108 278.217H342.948V285.268H340.108V278.217ZM352.055 211.136H354.895V218.187H352.055V211.136ZM352.055 224.748H354.895V231.799H352.055V224.748ZM352.055 238.262H354.895V245.313H352.055V238.262ZM352.055 251.874H354.895V258.925H352.055V251.874ZM352.055 264.703H354.895V271.754H352.055V264.703ZM352.055 278.217H354.895V285.268H352.055V278.217ZM364.101 211.136H366.94V218.187H364.101V211.136ZM364.101 224.748H366.94V231.799H364.101V224.748ZM364.101 238.262H366.94V245.313H364.101V238.262ZM364.101 251.874H366.94V258.925H364.101V251.874ZM364.101 264.703H366.94V271.754H364.101V264.703ZM364.101 278.217H366.94V285.268H364.101V278.217Z"
          fill="white"/>
    <path opacity="0.5"
          d="M283.016 112.227H285.366V118.397H283.016V112.227ZM288.696 112.227H291.046V118.397H288.696V112.227ZM294.473 112.227H296.824V118.397H294.473V112.227ZM300.251 112.227H302.602V118.397H300.251V112.227ZM283.016 122.51H285.366V128.679H283.016V122.51ZM288.696 122.51H291.046V128.679H288.696V122.51ZM294.473 122.51H296.824V128.679H294.473V122.51ZM300.251 122.51H302.602V128.679H300.251V122.51ZM283.016 132.89H285.366V139.06H283.016V132.89ZM288.696 132.89H291.046V139.06H288.696V132.89ZM306.715 112.227H309.065V118.397H306.715V112.227Z"
          fill="white"/>
    <path opacity="0.4"
          d="M127.892 175.098H129.361V180.778H127.892V175.098ZM133.18 175.098H134.649V180.778H133.18V175.098ZM139.251 175.098H140.72V180.778H139.251V175.098ZM144.54 175.098H146.009V180.778H144.54V175.098ZM116.336 175.098H117.805V180.778H116.336V175.098ZM121.526 175.098H122.995V180.778H121.526V175.098ZM127.892 184.989H129.361V190.669H127.892V184.989ZM133.18 184.989H134.649V190.669H133.18V184.989ZM139.251 184.989H140.72V190.669H139.251V184.989ZM144.54 184.989H146.009V190.669H144.54V184.989ZM116.336 184.989H117.805V190.669H116.336V184.989ZM121.526 184.989H122.995V190.669H121.526V184.989ZM127.892 194.88H129.361V200.56H127.892V194.88ZM133.18 194.88H134.649V200.56H133.18V194.88ZM139.251 194.88H140.72V200.56H139.251V194.88ZM144.54 194.88H146.009V200.56H144.54V194.88ZM116.336 194.88H117.805V200.56H116.336V194.88ZM121.526 194.88H122.995V200.56H121.526V194.88Z"
          fill="white"/>
    <path opacity="0.5"
          d="M404.25 218.774H406.502V227.588H404.25V218.774ZM411.301 218.774H413.553V227.588H411.301V218.774ZM417.862 218.774H420.115V227.588H417.862V218.774Z"
          fill="white"/>
    <path opacity="0.33"
          d="M562.311 220.537H564.073V225.532H562.311V220.537ZM567.795 220.537H569.557V225.532H567.795V220.537Z"
          fill="white"/>
    <path opacity="0.33"
          d="M562.311 220.537H564.073V225.532H562.311V220.537ZM567.795 220.537H569.557V225.532H567.795V220.537ZM572.985 220.537H574.748V225.532H572.985V220.537ZM578.469 220.537H580.232V225.532H578.469V220.537ZM562.311 229.449H564.073V234.443H562.311V229.449ZM567.795 229.449H569.557V234.443H567.795V229.449Z"
          fill="white"/>
    <path opacity="0.33"
          d="M562.311 229.449H564.073V234.443H562.311V229.449ZM567.795 229.449H569.557V234.443H567.795V229.449ZM572.985 229.449H574.748V234.443H572.985V229.449ZM578.469 229.449H580.232V234.443H578.469V229.449ZM562.311 238.948H564.073V243.942H562.311V238.948ZM567.795 238.948H569.557V243.942H567.795V238.948Z"
          fill="white"/>
    <path opacity="0.33"
          d="M562.309 238.948H564.072V243.942H562.309V238.948ZM567.793 238.948H569.556V243.942H567.793V238.948ZM572.983 238.948H574.746V243.942H572.983V238.948ZM578.467 238.948H580.23V243.942H578.467V238.948ZM584.343 220.537H586.106V225.531H584.343V220.537ZM584.343 229.449H586.106V234.443H584.343V229.449ZM589.827 220.537H591.59V225.531H589.827V220.537ZM426.383 205.848H428.243V213.584H426.383V205.848ZM435.686 205.848H437.547V213.584H435.686V205.848ZM444.989 205.848H446.85V213.584H444.989V205.848ZM454.293 205.848H456.153V213.584H454.293V205.848ZM426.383 221.81H428.243V229.547H426.383V221.81ZM435.686 221.81H437.547V229.547H435.686V221.81ZM444.989 221.81H446.85V229.547H444.989V221.81ZM454.293 221.81H456.153V229.547H454.293V221.81ZM426.383 238.066H428.243V245.803H426.383V238.066ZM435.686 238.066H437.547V245.803H435.686V238.066ZM444.989 238.066H446.85V245.803H444.989V238.066ZM454.293 238.066H456.153V245.803H454.293V238.066ZM426.383 254.421H428.243V262.157H426.383V254.421ZM435.686 254.421H437.547V262.157H435.686V254.421ZM444.989 254.421H446.85V262.157H444.989V254.421ZM454.293 254.421H456.153V262.157H454.293V254.421ZM426.383 269.306H428.243V277.042H426.383V269.306ZM435.686 269.306H437.547V277.042H435.686V269.306ZM444.989 269.306H446.85V277.042H444.989V269.306ZM426.383 285.856H428.243V293.592H426.383V285.856ZM435.686 285.856H437.547V293.592H435.686V285.856ZM444.989 285.856H446.85V293.592H444.989V285.856ZM454.293 269.306H456.153V277.042H454.293V269.306ZM637.91 246.782H639.869V251.189H637.91V246.782ZM637.91 253.931H639.869V258.338H637.91V253.931ZM642.807 246.782H644.766V251.189H642.807V246.782Z"
          fill="white"/>
    <path d="M587.675 292.417L594.236 346.181C594.824 350.881 591.494 355.092 586.892 355.68L513.64 364.787C509.038 365.375 504.827 362.045 504.239 357.345L497.678 303.581L587.675 292.417Z"
          fill="#13025F"/>
    <path d="M563.877 292.515L564.373 292.453L564.374 292.457L563.877 292.515ZM563.877 292.515L563.819 292.019L563.815 292.019L563.877 292.515ZM572.757 323.94C582.647 322.687 589.689 313.548 588.451 303.545L588.45 303.543L586.845 290.136L563.939 293.011L563.439 293.074L563.38 292.573L562.303 283.37C562.303 283.37 562.303 283.369 562.303 283.369L562.303 283.368L562.8 283.31L572.757 323.94ZM572.757 323.94H572.593H572.024L572.097 324.504L572.978 331.359L572.978 331.36C573.236 333.335 571.866 335.047 569.979 335.305C568.12 335.558 566.396 334.208 566.135 332.21L565.254 325.356L565.191 324.862L564.697 324.923L529.148 329.33L528.65 329.392L528.714 329.89L529.595 336.745L529.595 336.746C529.853 338.721 528.483 340.434 526.596 340.691C524.737 340.944 523.014 339.595 522.753 337.597C522.753 337.597 522.753 337.596 522.753 337.596L521.871 330.742L521.808 330.248L521.314 330.31L519.747 330.505C509.842 331.744 500.784 324.6 499.544 314.587C499.544 314.587 499.544 314.586 499.544 314.586L497.939 301.179L572.757 323.94ZM554.733 277.441L554.734 277.441L554.672 276.945L554.732 277.441C554.732 277.441 554.733 277.441 554.733 277.441ZM569.917 334.141L569.921 334.141C571.558 333.907 572.735 332.388 572.5 330.738C572.269 329.011 570.756 327.821 569.094 328.058C567.463 328.291 566.289 329.801 566.513 331.445C566.641 333.211 568.187 334.372 569.917 334.141ZM531.009 286.731L531.006 286.731C528.482 287.061 526.623 289.464 526.951 291.99C526.951 291.991 526.951 291.992 526.951 291.992L527.538 296.787L527.599 297.284L528.096 297.223L556.691 293.697L557.186 293.636L557.127 293.141L556.539 288.245L556.538 288.24C556.211 285.729 553.917 283.855 551.377 284.185C551.376 284.185 551.376 284.185 551.375 284.185L531.009 286.731ZM526.403 339.629L526.422 339.627L526.441 339.625C528.077 339.391 529.254 337.872 529.02 336.221C528.788 334.495 527.276 333.305 525.614 333.542C523.976 333.776 522.799 335.297 523.035 336.948C523.268 338.581 524.676 339.744 526.403 339.629Z"
          fill="#13025F" stroke="#2096C7"/>
    <path d="M364.591 389.563C363.415 356.561 363.024 258.044 382.414 211.332C382.414 211.332 441.367 181.855 428.049 242.865L390.444 385.548C396.124 438.822 376.636 482.792 368.41 507.47L367.431 520.985L359.498 518.145L359.596 514.325L356.365 517.067L330.707 508.058L334.037 505.12C350.195 511.681 359.694 504.435 359.694 504.435L364.689 391.326C364.689 390.738 364.591 390.249 364.591 389.563Z"
          fill="#130160"/>
    <path d="M199.089 18.6065C199.089 18.6065 199.775 18.4106 201.832 18.8024V18.4106C201.734 16.6479 203.3 15.9624 203.888 15.9624C204.476 15.9624 209.176 18.1169 209.568 18.4106C209.862 18.6065 213.387 23.3071 214.758 24.9719L218.675 26.7346L214.856 34.4711L211.918 32.9042L202.223 31.729C201.636 31.6311 200.167 31.0435 200.069 30.456C199.971 29.9663 200.167 29.085 200.363 28.6932C199.481 28.4974 198.796 28.1056 198.698 27.3222C198.6 26.245 199.285 25.5595 199.579 25.3636C198.796 25.0698 198.208 24.5802 198.11 23.8947C198.11 23.0133 198.6 22.5237 198.894 22.2299C198.208 21.8382 197.816 21.3485 197.816 20.663C197.816 19.0961 199.089 18.6065 199.089 18.6065Z"
          fill="#DBA17B"/>
    <path d="M217.698 25.2656L212.703 34.2751L216.62 36.3316L221.517 27.3221L217.698 25.2656Z" fill="#E3E3E3"/>
    <path d="M314.451 60.2267L376.44 77.4623C389.954 80.8898 401.118 85.6884 401.021 99.4964C400.923 111.15 390.738 123.195 377.419 118.103C350.685 107.723 331.98 97.9296 301.622 81.5753C301.524 81.5753 301.524 81.4774 301.426 81.4774L214.465 35.9402L219.655 26.0493L314.451 60.2267ZM448.712 396.712C437.744 365.669 408.169 271.754 412.87 221.223C412.87 221.223 460.366 175.196 465.752 237.381L476.72 385.255C492.389 403.176 487.884 481.911 487.394 507.96L490.528 521.181L482.106 520.887L481.029 517.166L478.777 520.789L451.65 519.908L453.902 516.088C471.236 517.46 478.189 507.667 478.189 507.667L449.398 398.279C449.202 397.79 448.908 397.3 448.712 396.712Z"
          fill="#130160"/>
    <path d="M413.753 56.8969C413.753 56.8969 417.67 72.9574 421.783 87.0592L384.766 103.022C386.627 95.8728 387.018 73.447 380.457 74.7201L396.713 46.9081L407.29 46.4185L413.753 56.8969Z"
          fill="#CE9474"/>
    <path d="M442.442 213.094C443.127 213.78 443.911 214.27 444.694 214.857C450.08 218.383 456.446 217.991 464.084 217.599C466.533 217.501 469.079 217.501 471.821 217.501C481.712 217.795 493.561 219.754 508.251 229.547C504.823 220.733 493.953 211.723 482.201 204.085C476.521 200.266 470.646 196.936 465.26 193.998C456.054 188.906 448.318 185.478 445.674 184.303C445.086 184.009 444.792 183.911 444.792 183.911L442.442 213.094ZM385.937 91.7598C365.861 110.464 363.119 150.811 408.167 217.599L385.937 91.7598Z"
          fill="#270E78"/>
    <path d="M375.359 234.247C385.054 239.535 455.564 242.963 465.259 233.464C460.264 181.267 465.455 144.935 468.588 120.845C471.428 97.6355 472.31 85.6881 460.264 81.9668L416.784 67.2773L388.678 97.0479L385.838 90.8784C366.448 131.127 384.761 188.612 375.359 234.247Z"
          fill="#E3E3E3"/>
    <path d="M432.75 140.039C427.07 162.857 439.311 187.633 423.348 206.631C412.184 220.439 394.068 220.146 377.517 219.95C377.028 224.846 376.44 229.547 375.461 234.149C385.156 239.438 455.665 242.865 465.36 233.366C460.366 181.17 465.556 144.838 468.69 120.747C469.473 114.675 470.061 109.387 470.355 104.785C452.531 109.191 436.471 123.685 432.75 140.039ZM416.787 67.1797L388.681 97.0482C388.681 97.0482 401.021 113.598 403.371 115.949L416.787 67.1797ZM382.512 107.233L388.681 97.0482L385.841 90.8786L382.512 107.233Z"
          fill="#F2F2F2"/>
    <path d="M425.698 169.81C447.242 199.972 495.815 207.219 509.721 233.366C511.778 186.653 465.163 169.907 465.163 169.907C468.199 132.988 471.725 115.263 472.802 101.651C473.389 93.6204 472.508 85.6881 465.065 82.9461L416.884 67.2773C416.884 67.2773 417.276 67.8649 417.276 68.0608C406.602 106.449 406.993 143.662 425.698 169.81Z"
          fill="#130160"/>
    <path d="M425.893 168.732C418.45 144.446 419.919 132.694 423.836 124.762L416.296 120.845L423.053 117.221C414.925 95.9706 417.177 70.6069 417.373 67.4731C406.601 105.959 406.699 144.837 425.893 168.732Z"
          fill="#270E78"/>
    <path d="M387.013 108.408L385.152 104.295L388.874 98.7129L392.497 103.903L388.972 108.604C387.894 141.214 405.326 180.386 461.342 187.731L473.387 204.771L456.151 212.311C406.697 198.209 391.616 164.424 387.503 138.962L387.405 138.668C384.859 122.804 386.719 110.366 387.013 108.408Z"
          fill="#130160"/>
    <path d="M377.616 17.3335L370.858 27.714L367.431 38.1925L368.41 40.7386L359.988 56.7991L366.354 59.737L370.075 78.8332C370.075 79.8125 370.858 80.596 371.838 80.6939C378.595 81.2815 398.866 80.498 403.861 61.7935C408.072 46.0268 409.149 37.8008 409.149 37.8008C409.149 37.8008 407.582 23.1113 377.616 17.3335Z"
          fill="#DBA17B"/>
    <path d="M394.754 49.4544C390.641 47.6917 389.661 39.2697 389.172 32.1209C388.976 29.4768 386.821 27.3223 384.177 27.4203L375.951 29.3788C360.674 32.2188 364.004 4.50476 378.889 0C378.889 0 377.518 3.03582 389.466 8.6178C395.537 11.4578 405.036 13.7101 412.087 15.5708C418.844 17.3335 423.055 24.0907 421.782 31.0436L415.809 63.1645C415.809 63.1645 400.727 58.4639 406.114 47.0062C411.304 35.6463 395.537 30.6519 394.754 49.4544Z"
          fill="#130160"/>
    <path d="M542.428 291.144C542.428 291.144 541.743 290.753 540.568 289.088L540.274 289.382C539.099 290.753 537.532 290.067 537.14 289.675C536.748 289.284 534.79 284.387 534.692 283.898C534.594 283.506 535.182 277.728 535.475 275.574L533.811 271.558L541.841 268.621L542.918 271.852L549.088 279.491C549.479 279.98 550.067 281.351 549.675 281.939C549.381 282.331 548.598 282.82 548.304 283.114C548.794 283.898 548.99 284.681 548.598 285.269C548.01 286.15 546.933 286.15 546.639 286.052C547.031 286.835 547.129 287.619 546.639 288.109C546.15 288.696 545.366 288.794 544.877 288.794C545.072 289.578 545.072 290.165 544.583 290.655C543.701 291.634 542.428 291.144 542.428 291.144Z"
          fill="#DBA17B"/>
    <path d="M533.518 273.321L543.213 270.285L541.842 266.172L532.146 269.11L533.518 273.321Z" fill="#E3E3E3"/>
    <path d="M451.552 91.466C459.484 83.044 475.153 81.5751 481.225 94.5017C493.564 120.747 500.321 140.92 511.093 173.825V174.021L542.92 267.739L532.442 271.167L487.296 180.288V180.19L454.294 124.664C446.851 112.717 442.053 101.455 451.552 91.466Z"
          fill="#130160"/>
</svg>
