<svg viewBox="0 0 40 41" fill="none" xmlns="http://www.w3.org/2000/svg">
    <circle cx="20" cy="20.5" r="20" fill="#130160"/>
    <path fill-rule="evenodd" clip-rule="evenodd" d="M10.1183 8.84339C12.9382 6.74308 16.4342 5.5 20.2206 5.5C23.9697 5.5 27.4341 6.7187 30.2394 8.78156L28.21 10.8109C25.9527 9.2862 23.2317 8.39593 20.3027 8.39593C17.2939 8.39593 14.5045 9.33539 12.2119 10.937L10.1183 8.84339ZM14.3486 21.9249C14.3486 19.0108 16.5008 16.5995 19.3024 16.1936L19.7827 17.1542L19.1019 22.4303L20.2082 23.6217L21.3145 22.4303L20.6337 17.1542L21.1041 16.2133C23.8437 16.6724 25.9314 19.0548 25.9314 21.9249C25.9314 25.1234 23.3385 27.7163 20.14 27.7163C16.9415 27.7163 14.3486 25.1234 14.3486 21.9249ZM27.5825 28.4014C26.8387 28.2023 26.158 28.8824 26.3573 29.6257L26.9057 31.6708C27.1035 32.4082 28.0204 32.6591 28.5666 32.1316L30.5151 34.0784C30.9057 34.4688 31.5392 34.4688 31.9299 34.0784L32.0337 33.9746C32.4244 33.5843 32.4244 32.9514 32.0337 32.561L30.0853 30.6142C30.6201 30.0691 30.3698 29.1477 29.6294 28.9494L27.5825 28.4014ZM14.2106 12.5524C15.927 11.4715 17.9591 10.8462 20.1373 10.8462C22.2874 10.8462 24.2952 11.4555 25.9974 12.5108L23.9509 14.5573C22.8037 13.9645 21.5016 13.6297 20.1213 13.6297C18.7209 13.6297 17.4009 13.9743 16.2417 14.5834L14.2106 12.5524ZM11.972 14.4093C10.1277 16.3966 9 19.0584 9 21.9835C9 28.1345 13.9863 33.1209 20.1373 33.1209C22.3504 33.1209 24.4128 32.4754 26.1464 31.3623C25.9278 31.2379 25.7529 31.0299 25.6788 30.7535L25.1217 28.6743C23.7276 29.7177 21.9966 30.3357 20.1213 30.3357C15.5081 30.3357 11.7683 26.596 11.7683 21.9827C11.7683 19.8226 12.5883 17.854 13.9339 16.3712L11.972 14.4093ZM31.2746 21.9835C31.2746 24.3233 30.5531 26.4946 29.3204 28.287C29.2019 28.0385 28.9809 27.8358 28.6777 27.7546L26.6384 27.2082C27.787 25.7774 28.4743 23.9603 28.4743 21.9827C28.4743 19.803 27.6394 17.8183 26.272 16.331L28.25 14.353C30.1254 16.3462 31.2746 19.0307 31.2746 21.9835Z" fill="white"/>
</svg>
