<svg viewBox="0 0 112 138" fill="none" xmlns="http://www.w3.org/2000/svg">
    <path fill-rule="evenodd" clip-rule="evenodd" d="M5.00025 15.8533C17.656 6.43376 33.343 0.859375 50.332 0.859375C67.1725 0.859375 82.7337 6.33675 95.3313 15.6072L86.275 24.6634C76.1523 17.8415 63.9572 13.8594 50.832 13.8594C37.2998 13.8594 24.7563 18.0923 14.4532 25.3063L5.00025 15.8533ZM76 74.5991C76 88.9585 64.3594 100.599 50 100.599C35.6406 100.599 24 88.9585 24 74.5991C24 61.4934 33.6966 50.6525 46.3069 48.8594L48.4709 53.1873L45.4121 76.8932L50.3826 82.2462L55.3532 76.8932L52.2944 53.1873L54.4029 48.9704C66.6654 51.062 76 61.7404 76 74.5991ZM77.2599 101.895C76.5163 101.695 75.8359 102.376 76.0351 103.119L82.7437 128.156C82.9429 128.899 83.8724 129.148 84.4167 128.604L89.5816 123.439L102.869 136.727C103.26 137.117 103.893 137.117 104.284 136.727L110.867 130.144C111.257 129.753 111.257 129.12 110.867 128.73L97.5789 115.442L102.745 110.276C103.289 109.732 103.04 108.802 102.296 108.603L77.2599 101.895ZM23.3567 32.5417C31.0698 27.6753 40.206 24.8594 50 24.8594C59.6437 24.8594 68.6497 27.5896 76.2873 32.3191L67.1199 41.4865C61.9876 38.8484 56.1677 37.3594 50 37.3594C43.6794 37.3594 37.7241 38.9231 32.4997 41.6848L23.3567 32.5417ZM13.3153 40.8851C5.05147 49.8039 0 61.7417 0 74.8594C0 102.474 22.3858 124.859 50 124.859C59.4474 124.859 68.2828 122.239 75.8192 117.686L72.4026 104.935C66.1519 109.599 58.3984 112.359 50 112.359C29.2893 112.359 12.5 95.5701 12.5 74.8594C12.5 65.1936 16.1569 56.382 22.1627 49.7325L13.3153 40.8851ZM100 74.8594C100 84.7648 97.1196 93.9975 92.1507 101.766L79.2628 98.3123C84.4167 91.8899 87.5 83.7347 87.5 74.8594C87.5 65.0463 83.7308 56.1136 77.5611 49.4301L86.4053 40.5859C94.8345 49.5361 100 61.5945 100 74.8594Z" fill="white"/>
</svg>
