<svg width="144" height="28" viewBox="0 0 144 28" fill="none" xmlns="http://www.w3.org/2000/svg">
<path d="M18.2246 17.5098C18.2246 23.3978 15.4811 26.3418 9.99414 26.3418C4.67122 26.3418 2.00977 23.4661 2.00977 17.7148V6.39453H6.43945V17.7695C6.43945 20.9414 7.67904 22.5273 10.1582 22.5273C12.5918 22.5273 13.8086 20.9961 13.8086 17.9336V6.39453H18.2246V17.5098ZM37.4533 26H21.6623V23.457L31.7111 9.99023H22.3869V6.39453H37.4259V8.86914L27.5959 22.418H37.4533V26Z" fill="#2F07E6"/>
<path d="M66.8402 6.39453L61.6585 26H56.764L53.5101 13.4219C53.3369 12.7656 53.2321 12.0319 53.1956 11.2207H53.1409C53.0589 12.1139 52.9404 12.8477 52.7855 13.4219L49.4495 26H44.3499L39.1956 6.39453H44.0218L46.7835 19.4512C46.902 20.0072 46.9886 20.7546 47.0433 21.6934H47.1253C47.1618 20.9915 47.2939 20.2259 47.5218 19.3965L51.0765 6.39453H55.807L59.0198 19.5605C59.1383 20.0436 59.2432 20.7454 59.3343 21.666H59.389C59.4254 20.946 59.5211 20.2168 59.6761 19.4785L62.3831 6.39453H66.8402ZM78.4536 26.3418C75.6463 26.3418 73.3585 25.4303 71.5903 23.6074C69.8221 21.7754 68.938 19.3919 68.938 16.457C68.938 13.3581 69.8358 10.8516 71.6313 8.9375C73.4269 7.02344 75.8058 6.06641 78.768 6.06641C81.5662 6.06641 83.8266 6.98242 85.5493 8.81445C87.2811 10.6465 88.1469 13.0618 88.1469 16.0605C88.1469 19.1413 87.2492 21.625 85.4536 23.5117C83.6671 25.3984 81.3338 26.3418 78.4536 26.3418ZM78.645 9.86719C77.0955 9.86719 75.865 10.4505 74.9536 11.6172C74.0421 12.7747 73.5864 14.3105 73.5864 16.2246C73.5864 18.166 74.0421 19.7018 74.9536 20.832C75.865 21.9622 77.0591 22.5273 78.5356 22.5273C80.0578 22.5273 81.2654 21.9805 82.1587 20.8867C83.0519 19.7839 83.4985 18.2572 83.4985 16.3066C83.4985 14.2741 83.0656 12.6927 82.1997 11.5625C81.3338 10.4323 80.1489 9.86719 78.645 9.86719ZM108.702 26H103.63L100.581 20.9551C100.353 20.5723 100.134 20.2305 99.9245 19.9297C99.7148 19.6289 99.5006 19.3737 99.2819 19.1641C99.0722 18.9453 98.8489 18.7812 98.612 18.6719C98.3841 18.5534 98.1334 18.4941 97.86 18.4941H96.6705V26H92.2545V6.39453H99.2545C104.012 6.39453 106.391 8.17188 106.391 11.7266C106.391 12.4102 106.286 13.0436 106.077 13.627C105.867 14.2012 105.571 14.7207 105.188 15.1855C104.805 15.6504 104.34 16.0514 103.794 16.3887C103.256 16.7259 102.654 16.9902 101.989 17.1816V17.2363C102.281 17.3275 102.563 17.4779 102.837 17.6875C103.11 17.888 103.374 18.125 103.63 18.3984C103.885 18.6719 104.126 18.9681 104.354 19.2871C104.591 19.597 104.805 19.9023 104.997 20.2031L108.702 26ZM96.6705 9.70312V15.1582H98.5846C99.5325 15.1582 100.294 14.8848 100.868 14.3379C101.451 13.7819 101.743 13.0938 101.743 12.2734C101.743 10.5599 100.717 9.70312 98.6666 9.70312H96.6705ZM127.684 26H122.106L116.391 17.4824C116.282 17.3184 116.109 16.9583 115.872 16.4023H115.804V26H111.387V6.39453H115.804V15.6641H115.872C115.981 15.4089 116.164 15.0443 116.419 14.5703L121.833 6.39453H127.096L120.261 15.7461L127.684 26ZM129.509 25.248V20.873C130.302 21.5384 131.163 22.0397 132.093 22.377C133.022 22.7051 133.961 22.8691 134.909 22.8691C135.465 22.8691 135.948 22.819 136.358 22.7188C136.778 22.6185 137.124 22.4818 137.397 22.3086C137.68 22.1263 137.89 21.9167 138.026 21.6797C138.163 21.4336 138.231 21.1693 138.231 20.8867C138.231 20.5039 138.122 20.1621 137.903 19.8613C137.685 19.5605 137.384 19.2826 137.001 19.0273C136.627 18.7721 136.181 18.526 135.661 18.2891C135.142 18.0521 134.581 17.8105 133.979 17.5645C132.448 16.9264 131.304 16.1471 130.548 15.2266C129.8 14.306 129.427 13.194 129.427 11.8906C129.427 10.8698 129.632 9.99479 130.042 9.26562C130.452 8.52734 131.008 7.92122 131.71 7.44727C132.421 6.97331 133.241 6.62695 134.171 6.4082C135.101 6.18034 136.085 6.06641 137.124 6.06641C138.145 6.06641 139.047 6.13021 139.831 6.25781C140.624 6.3763 141.353 6.56315 142.019 6.81836V10.9062C141.69 10.6784 141.33 10.4779 140.938 10.3047C140.556 10.1315 140.159 9.99023 139.749 9.88086C139.339 9.76237 138.929 9.67578 138.519 9.62109C138.117 9.56641 137.735 9.53906 137.37 9.53906C136.869 9.53906 136.413 9.58919 136.003 9.68945C135.593 9.7806 135.246 9.91276 134.964 10.0859C134.681 10.2591 134.463 10.4688 134.308 10.7148C134.153 10.9518 134.075 11.2207 134.075 11.5215C134.075 11.8496 134.162 12.1458 134.335 12.4102C134.508 12.6654 134.754 12.9115 135.073 13.1484C135.392 13.3763 135.78 13.6042 136.235 13.832C136.691 14.0508 137.206 14.2786 137.78 14.5156C138.564 14.8438 139.266 15.1947 139.886 15.5684C140.515 15.9329 141.052 16.3477 141.499 16.8125C141.946 17.2773 142.287 17.8105 142.524 18.4121C142.761 19.0046 142.88 19.6973 142.88 20.4902C142.88 21.584 142.67 22.5046 142.251 23.252C141.841 23.9902 141.28 24.5918 140.569 25.0566C139.858 25.5124 139.029 25.8405 138.081 26.041C137.142 26.2415 136.149 26.3418 135.101 26.3418C134.025 26.3418 133 26.2507 132.024 26.0684C131.058 25.8861 130.22 25.6126 129.509 25.248Z" fill="#131832"/>
</svg>
