<svg viewBox="0 0 42 41" fill="none" xmlns="http://www.w3.org/2000/svg">
    <g clip-path="url(#clip0_1914_24237)">
        <rect x="0.5" width="41" height="41" rx="20.5" fill="#130160"/>
        <path d="M13.3722 12.9893C13.3722 13.0956 13.3722 13.2094 13.3342 13.3157C13.2963 13.422 13.3342 13.3613 13.3342 13.3841C13.3342 13.5359 13.3342 13.6802 13.2811 13.832C13.2431 14.1585 13.2052 14.485 13.1748 14.8191V15.1L13.1292 15.4493C12.9489 15.5348 12.7518 15.5789 12.5522 15.5783C12.3227 15.5799 12.0961 15.5267 11.8912 15.4231C11.6864 15.3196 11.5092 15.1686 11.3745 14.9828C11.2397 14.797 11.1512 14.5817 11.1163 14.3549C11.0815 14.128 11.1013 13.8961 11.174 13.6784C11.2468 13.4607 11.3705 13.2635 11.5348 13.1032C11.6991 12.9429 11.8992 12.8241 12.1187 12.7568C12.3381 12.6894 12.5704 12.6753 12.7963 12.7157C13.0223 12.7562 13.2353 12.8499 13.4177 12.9893H13.3722ZM29.1876 15.5556H28.322L26.8794 21.3031L21.4127 19.9517C21.3321 19.941 21.2504 19.941 21.1698 19.9517V9.85352C22.8546 10.0632 24.5563 10.1039 26.2492 9.975C26.4595 9.96561 26.6699 9.99126 26.8718 10.0509H26.9402C27.1589 10.1192 27.3644 10.2245 27.5476 10.3622L27.6614 10.4533C27.8795 10.6419 28.0547 10.875 28.1752 11.1369C28.2957 11.3989 28.3587 11.6835 28.36 11.9718V12.7311C28.36 12.7311 28.5422 12.4957 28.8231 12.1085C28.8231 12.4046 28.8914 12.7083 28.9294 13.0196C29.0205 13.7789 29.1192 14.6368 29.2103 15.4796L29.1876 15.5556Z" fill="#E5989B"/>
        <path d="M21.1295 9.82314V19.9213C21.0489 19.9097 20.9671 19.9097 20.8866 19.9213L15.3743 21.2955L13.9393 15.5555H13.0586V15.4341L13.1041 15.0848V14.8039C13.1041 14.4698 13.1725 14.1433 13.2104 13.8168C13.2104 13.665 13.2484 13.5207 13.2636 13.3689V13.3005C13.2636 13.2778 13.2636 13.0804 13.3016 12.9741L13.3927 12.1617V12.025C13.5133 11.0264 13.9955 10.1066 14.7481 9.43931C15.5007 8.77202 16.4716 8.40348 17.4775 8.40332H18.2367C19.1552 8.96474 20.1236 9.44003 21.1295 9.82314Z" fill="#FFCDB2"/>
        <path d="M31.1914 14.1362C31.1874 14.5129 31.0355 14.8728 30.7685 15.1385C30.5014 15.4041 30.1406 15.5541 29.764 15.556C29.5621 15.5558 29.3626 15.5117 29.1794 15.427C29.0883 14.5842 28.9895 13.749 28.8984 12.967C29.1115 12.8123 29.3631 12.7193 29.6256 12.698C29.888 12.6768 30.1513 12.7282 30.3865 12.8466C30.6217 12.965 30.8198 13.1458 30.9591 13.3692C31.0984 13.5927 31.1735 13.8502 31.1762 14.1135L31.1914 14.1362Z" fill="#E5989B"/>
        <path d="M28.7843 12.0785C28.5033 12.4657 28.3211 12.7011 28.3211 12.7011V11.9418C28.3198 11.6535 28.2568 11.3688 28.1363 11.1069C28.0158 10.845 27.8407 10.6119 27.6226 10.4233L27.5087 10.3322C27.3255 10.1944 27.1201 10.0892 26.9013 10.0209H26.833C26.6311 9.96122 26.4207 9.93556 26.2104 9.94495C24.5174 10.0739 22.8158 10.0332 21.1309 9.82347C20.149 9.44143 19.2037 8.9713 18.3065 8.41884H18.2533C18.2533 8.41884 18.3824 3.35458 19.6883 2.66366C22.4141 1.23625 30.3939 4.01514 31.1911 6.97625C31.5176 8.13032 29.6726 10.8561 28.7843 12.0785ZM18.2533 8.38847H17.57C16.5642 8.38864 15.5932 8.75717 14.8406 9.42446C14.088 10.0917 13.6058 11.0116 13.4852 12.0101V12.1468C12.6728 11.2281 11.0859 9.31477 11.0859 8.35051C11.0859 7.38625 12.9537 5.57162 13.9635 5.47292C15.2315 5.3818 18.2533 8.38847 18.2533 8.38847Z" fill="#2B2D42"/>
        <path d="M23.248 22.7612H19.0037C18.9633 22.7623 18.9238 22.7494 18.8918 22.7246C18.8599 22.6999 18.8375 22.6648 18.8286 22.6254C18.8196 22.5859 18.8246 22.5446 18.8427 22.5085C18.8608 22.4724 18.8909 22.4436 18.9278 22.4272L20.6513 21.5464C20.7897 21.4792 20.9416 21.4443 21.0955 21.4443C21.2493 21.4443 21.4012 21.4792 21.5396 21.5464L23.3011 22.4272C23.3367 22.4426 23.3661 22.4694 23.3847 22.5033C23.4034 22.5373 23.4102 22.5765 23.4041 22.6148C23.398 22.6531 23.3794 22.6882 23.3511 22.7147C23.3228 22.7412 23.2865 22.7576 23.248 22.7612Z" fill="white"/>
        <path d="M24.6313 28.7895L21.412 29.8676C21.3212 29.8787 21.2294 29.8787 21.1387 29.8676V24.8869C22.1789 24.8869 23.2266 24.8413 24.1757 24.7578L25.0564 27.4228L25.2083 27.7037C25.2433 27.8129 25.2561 27.9279 25.2459 28.0421C25.2357 28.1562 25.2027 28.2672 25.1489 28.3684C25.0951 28.4696 25.0216 28.559 24.9327 28.6313C24.8438 28.7037 24.7413 28.7574 24.6313 28.7895Z" fill="#E5989B"/>
        <path d="M21.1312 24.925V29.9057C21.0404 29.9168 20.9487 29.9168 20.8579 29.9057L17.6158 28.7896C17.4031 28.7137 17.2285 28.5577 17.1292 28.3549C17.0299 28.152 17.0138 27.9184 17.0844 27.7039L17.1982 27.3622L18.0562 24.7959C19.0433 24.8794 20.0834 24.925 21.1312 24.925Z" fill="#FFCDB2"/>
        <path d="M26.552 29.2226L26.4457 29.3213L26.3773 29.382C26.3014 29.4428 26.2179 29.5111 26.1268 29.5718L25.9673 29.6781L25.4738 29.9515L25.3675 30.0046L25.2536 30.0578L25.0334 30.1565L24.7981 30.2552L24.3273 30.445L24.2058 30.4905L23.8414 30.6196L23.7427 30.6576H23.5377C22.8392 30.893 22.1786 31.0676 21.7307 31.1815H21.6092L21.3207 31.2498H20.9866L20.6297 31.1587H20.5158C20.3184 31.1131 20.0755 31.0448 19.8173 30.9689H19.6579L19.2707 30.8474L19.0733 30.7867L18.6784 30.6576L18.4431 30.5741L18.3216 30.5361L18.2001 30.4905L18.0786 30.445C17.5011 30.2402 16.9423 29.9862 16.4083 29.6857L16.3171 29.625C16.256 29.5889 16.1976 29.5483 16.1425 29.5035L15.9755 29.3896L15.854 29.2833L15.7477 29.1846C15.5443 29.0065 15.4189 28.7557 15.3984 28.4861C15.3984 28.0078 16.4007 27.5978 17.2207 27.332L17.1068 27.6737C17.0369 27.8902 17.0551 28.1255 17.1574 28.3287C17.2597 28.5319 17.4379 28.6866 17.6534 28.7594L20.8803 29.8376C21.059 29.8882 21.2483 29.8882 21.427 29.8376L24.6538 28.7594C24.865 28.6897 25.0408 28.5406 25.1442 28.3437C25.2476 28.1468 25.2705 27.9175 25.2081 27.7041L25.1245 27.4611C26.0508 27.6813 26.886 28.023 26.9164 28.5165C26.9108 28.6536 26.8753 28.7879 26.8123 28.9099C26.7494 29.0318 26.6605 29.1386 26.552 29.2226Z" fill="#DC2F02"/>
        <path d="M36.6586 41.5981L21.2457 42.8889H21.0103L5.59732 41.6057C5.3882 41.5881 5.18559 41.5243 5.00407 41.4189C4.82255 41.3136 4.66664 41.1693 4.54756 40.9965C4.42848 40.8237 4.34919 40.6267 4.3154 40.4195C4.28161 40.2124 4.29415 40.0004 4.35213 39.7987L6.54639 32.1226C6.6096 31.8993 6.7263 31.6947 6.88639 31.5267C7.04647 31.3587 7.24511 31.2322 7.4651 31.1583L14.2984 28.8805C14.5471 28.7939 14.8151 28.7793 15.0717 28.8384C15.3283 28.8975 15.5629 29.0279 15.7486 29.2146C16.8419 30.3231 20.1979 31.1659 20.9875 31.3557C21.0977 31.3784 21.2114 31.3784 21.3216 31.3557C22.0808 31.1659 25.4975 30.3307 26.5757 29.2298C26.761 29.0426 26.9953 28.9112 27.2517 28.8508C27.5081 28.7904 27.7764 28.8033 28.0258 28.8881L34.8592 31.1659C35.0785 31.241 35.2765 31.3678 35.4365 31.5357C35.5964 31.7035 35.7135 31.9074 35.7779 32.1301L37.9721 39.8063C38.0283 40.0123 38.0372 40.2283 37.9983 40.4382C37.9593 40.6482 37.8736 40.8466 37.7473 41.0188C37.6211 41.191 37.4577 41.3326 37.2692 41.4329C37.0807 41.5331 36.872 41.5896 36.6586 41.5981Z" fill="#FFBA08"/>
        <path d="M29.1863 15.5557H28.3208L26.8782 21.3033L21.4115 19.9518C21.3309 19.9411 21.2492 19.9411 21.1686 19.9518C21.088 19.9401 21.0062 19.9401 20.9256 19.9518L15.4134 21.326L13.9404 15.5557H13.0597C12.7484 18.3194 12.4902 21.1894 12.4902 22.7383C12.4902 23.8316 14.9654 26.0258 18.0404 26.2916C19.0275 26.3751 20.0676 25.6766 21.1154 25.6766C22.1632 25.6766 23.2034 26.3751 24.1525 26.2916C27.1895 26.0258 29.7026 23.8316 29.7026 22.7383C29.7634 21.2121 29.49 18.3421 29.1863 15.5557ZM23.2489 22.7383H19.0047C18.9643 22.7394 18.9247 22.7265 18.8928 22.7017C18.8609 22.6769 18.8385 22.6418 18.8295 22.6024C18.8206 22.563 18.8256 22.5217 18.8437 22.4855C18.8618 22.4494 18.8918 22.4206 18.9288 22.4042L20.6523 21.5462C20.7919 21.478 20.9449 21.4417 21.1002 21.4399C21.2533 21.4407 21.404 21.4771 21.5406 21.5462L23.3021 22.427C23.3376 22.4424 23.3671 22.4692 23.3857 22.5032C23.4043 22.5371 23.4112 22.5763 23.4051 22.6146C23.399 22.6529 23.3803 22.688 23.3521 22.7145C23.3238 22.7411 23.2875 22.7574 23.2489 22.761V22.7383Z" fill="#2B2D42"/>
    </g>
    <defs>
        <clipPath id="clip0_1914_24237">
            <rect x="0.5" width="41" height="41" rx="20.5" fill="white"/>
        </clipPath>
    </defs>
</svg>
